<svg width="23" height="22" viewBox="0 0 23 22" fill="none" xmlns="http://www.w3.org/2000/svg">
<path d="M11.3052 21.9934C8.79596 21.994 6.36413 21.1244 4.42411 19.533C2.48409 17.9415 1.15589 15.7266 0.665865 13.2656C0.175844 10.8047 0.554305 8.24992 1.73675 6.03672C2.91919 3.82351 4.83251 2.08878 7.15059 1.12811C9.46868 0.167427 12.0481 0.0402466 14.4495 0.76823C16.8508 1.49621 18.9255 3.03432 20.3199 5.12047C21.7143 7.20662 22.3423 9.71173 22.0967 12.209C21.8512 14.7062 20.7473 17.041 18.9732 18.8156C16.9397 20.8497 14.1815 21.9928 11.3052 21.9934V21.9934ZM11.3052 14.3254C11.1169 14.3254 10.9328 14.3811 10.7761 14.4855C10.6194 14.59 10.4971 14.7384 10.4245 14.9122C10.352 15.0859 10.3324 15.2773 10.3684 15.4621C10.4044 15.6469 10.4942 15.817 10.6266 15.9509C10.759 16.0848 10.928 16.1766 11.1125 16.2146C11.2969 16.2527 11.4885 16.2353 11.663 16.1647C11.8376 16.0941 11.9874 15.9735 12.0936 15.818C12.1997 15.6624 12.2575 15.479 12.2597 15.2907C12.2597 15.0384 12.161 14.7961 11.9847 14.6157C11.8083 14.4353 11.5683 14.3311 11.3161 14.3254H11.3052ZM11.3052 6.08259C11.0538 6.08812 10.8142 6.19044 10.6364 6.36825C10.4586 6.54606 10.3563 6.78563 10.3508 7.03702V11.8309C10.3365 11.964 10.3504 12.0987 10.3916 12.2261C10.4328 12.3535 10.5004 12.4708 10.5899 12.5704C10.6794 12.67 10.7888 12.7497 10.9112 12.8042C11.0335 12.8587 11.1659 12.8869 11.2998 12.8869C11.4337 12.8869 11.5661 12.8587 11.6884 12.8042C11.8108 12.7497 11.9202 12.67 12.0097 12.5704C12.0992 12.4708 12.1668 12.3535 12.208 12.2261C12.2492 12.0987 12.2631 11.964 12.2488 11.8309V7.03702C12.2461 6.78661 12.1461 6.54707 11.9701 6.36898C11.794 6.19089 11.5556 6.0882 11.3052 6.08259V6.08259Z" fill="#ADB9D2"/>
</svg>
