<svg width="24" height="15" viewBox="0 0 24 15" fill="none" xmlns="http://www.w3.org/2000/svg">
<path fill-rule="evenodd" clip-rule="evenodd" d="M16.4318 1.04961C16.1678 1.17121 15.8998 1.47037 15.8112 1.74246C15.673 2.16705 15.8389 2.75235 16.17 3.00841C16.5186 3.27798 16.6436 3.29477 18.3208 3.29734L19.8854 3.29975L16.6755 6.5541L13.4656 9.80844L11.4416 7.76223C9.32934 5.62691 9.29454 5.59781 8.85093 5.59781C8.39189 5.59781 8.47424 5.52347 4.65176 9.38976C2.43946 11.6274 0.97547 13.1493 0.907318 13.2822C0.773929 13.5425 0.760709 13.9629 0.877209 14.24C1.04783 14.6461 1.50352 14.9487 1.94405 14.9487C2.45468 14.9487 2.47318 14.9323 5.76059 11.5714L8.84872 8.41433L10.8238 10.4292C12.1429 11.7751 12.8646 12.4722 12.9968 12.5284C13.2728 12.6458 13.7025 12.6321 13.957 12.4978C14.0793 12.4332 15.6767 10.8544 17.8081 8.6915C19.8113 6.65868 21.4686 4.99549 21.4909 4.99549C21.5132 4.99549 21.5315 5.73007 21.5315 6.62794C21.5315 8.23124 21.5338 8.26466 21.6571 8.50146C21.7261 8.63406 21.886 8.81638 22.0125 8.90664C22.2205 9.05515 22.2824 9.07074 22.6647 9.07074C23.0469 9.07074 23.1089 9.05515 23.3169 8.90664C23.4433 8.81638 23.6033 8.63406 23.6723 8.50146L23.7979 8.26034V5.03942C23.7979 1.97734 23.7928 1.80843 23.6949 1.61549C23.5624 1.3544 23.3376 1.13965 23.0846 1.03254C22.911 0.959022 22.4647 0.947754 19.7661 0.948793C16.8669 0.949887 16.633 0.956998 16.4318 1.04961Z" fill="#99A7C7" fill-opacity="0.8"/>
</svg>
