<svg width="25" height="22" viewBox="0 0 25 22" fill="none" xmlns="http://www.w3.org/2000/svg">
<path d="M16.2225 17.1837C16.2088 16.3944 16.4295 15.6187 16.8567 14.9547C17.2839 14.2908 17.8983 13.7684 18.6224 13.4537C19.3464 13.139 20.1475 13.046 20.9244 13.1865C21.7012 13.327 22.419 13.6947 22.9869 14.2432C23.5548 14.7916 23.9473 15.4961 24.1149 16.2676C24.2824 17.0391 24.2174 17.843 23.9281 18.5775C23.6388 19.3121 23.1382 19.9444 22.4896 20.3945C21.8409 20.8445 21.0734 21.0921 20.284 21.106H20.2144C19.6947 21.1106 19.1793 21.0128 18.6974 20.8182C18.2156 20.6236 17.7768 20.3359 17.4061 19.9717C17.0354 19.6075 16.7401 19.1738 16.537 18.6954C16.3339 18.2171 16.227 17.7034 16.2225 17.1837ZM2.74964 18.9592C2.28798 18.9715 1.84033 18.7999 1.50518 18.4822C1.17004 18.1645 0.974844 17.7266 0.962534 17.2649C0.950223 16.8033 1.12179 16.3557 1.43953 16.0205C1.75726 15.6854 2.19513 15.4902 2.65678 15.4779H10.3738C10.8354 15.4655 11.2831 15.6371 11.6182 15.9549C11.9534 16.2726 12.1486 16.7104 12.1609 17.1721C12.1732 17.6338 12.0016 18.0814 11.6839 18.4166C11.3662 18.7517 10.9283 18.9469 10.4666 18.9592H2.74964ZM0.997346 4.39554C1.00959 3.347 1.43631 2.34591 2.18429 1.61098C2.93226 0.876052 3.9407 0.46701 4.9893 0.473214V0.473214C6.0379 0.46701 7.04634 0.876052 7.79431 1.61098C8.54229 2.34591 8.96901 3.347 8.98125 4.39554V4.39554C8.9767 4.91521 8.86982 5.42889 8.66674 5.90725C8.46366 6.38561 8.16833 6.81928 7.79764 7.18351C7.42695 7.54773 6.98816 7.83538 6.5063 8.03001C6.02444 8.22464 5.50896 8.32247 4.9893 8.31787C4.46964 8.32247 3.95416 8.22464 3.4723 8.03001C2.99044 7.83538 2.55161 7.54773 2.18092 7.18351C1.81023 6.81928 1.51494 6.38561 1.31186 5.90725C1.10878 5.42889 1.0019 4.91521 0.997346 4.39554ZM14.8299 6.11301C14.3683 6.11301 13.9255 5.92963 13.5991 5.60318C13.2726 5.27674 13.0893 4.83399 13.0893 4.37233C13.0893 3.91067 13.2726 3.46793 13.5991 3.14149C13.9255 2.81505 14.3683 2.63165 14.8299 2.63165H22.4541C22.9157 2.63165 23.3585 2.81505 23.6849 3.14149C24.0114 3.46793 24.1948 3.91067 24.1948 4.37233C24.1948 4.83399 24.0114 5.27674 23.6849 5.60318C23.3585 5.92963 22.9157 6.11301 22.4541 6.11301H14.8299Z" fill="#485470"/>
</svg>
