<svg width="19" height="22" viewBox="0 0 19 22" fill="none" xmlns="http://www.w3.org/2000/svg">
<path d="M5.95788 21.0398C5.26946 21.0922 4.57783 20.9954 3.93026 20.756C3.2827 20.5165 2.69448 20.1401 2.2058 19.6523C1.71712 19.1646 1.33952 18.5771 1.09879 17.93C0.85807 17.2829 0.759903 16.5915 0.811007 15.903V7.5556C0.762191 6.27271 1.19932 5.01866 2.03502 4.04409C2.90428 3.13716 4.08218 2.58939 5.33584 2.50906V1.75659C5.33203 1.6543 5.3497 1.55234 5.38772 1.45729C5.42573 1.36225 5.48326 1.27623 5.55657 1.20478C5.62746 1.13319 5.71185 1.07637 5.80484 1.03758C5.89783 0.998801 5.99759 0.978836 6.09834 0.978836C6.1991 0.978836 6.29885 0.998801 6.39185 1.03758C6.48484 1.07637 6.56922 1.13319 6.64012 1.20478C6.78127 1.34576 6.86067 1.53703 6.86084 1.73653V2.43883H12.7401V1.7265C12.7424 1.52148 12.8211 1.32469 12.9608 1.17468C13.0317 1.10309 13.1161 1.04627 13.2091 1.00749C13.3021 0.968704 13.4019 0.94873 13.5026 0.94873C13.6034 0.94873 13.7031 0.968704 13.7961 1.00749C13.8891 1.04627 13.9735 1.10309 14.0444 1.17468C14.1855 1.31566 14.2649 1.50693 14.2651 1.70643V2.45889C14.9003 2.47381 15.526 2.61694 16.1045 2.8797C16.683 3.14246 17.2024 3.51943 17.6316 3.98796C18.0608 4.45649 18.3908 5.00693 18.6019 5.60621C18.8131 6.20549 18.9009 6.84126 18.8602 7.47534V15.9331C18.8602 19.0734 16.8536 21.0197 13.7133 21.0197L5.95788 21.0398ZM13.8738 15.2207C13.7092 15.2247 13.5495 15.2775 13.4148 15.3723C13.2801 15.4671 13.1766 15.5996 13.1173 15.7533C13.058 15.9069 13.0455 16.0747 13.0816 16.2354C13.1176 16.396 13.2004 16.5425 13.3197 16.6561C13.4389 16.7697 13.5891 16.8454 13.7513 16.8736C13.9136 16.9018 14.0805 16.8813 14.2311 16.8147C14.3817 16.7481 14.5092 16.6383 14.5974 16.4992C14.6856 16.3601 14.7305 16.198 14.7266 16.0334C14.7253 15.9245 14.7024 15.8169 14.6592 15.717C14.6161 15.617 14.5534 15.5266 14.4751 15.451C14.3967 15.3754 14.304 15.3161 14.2025 15.2766C14.1011 15.237 13.9927 15.2181 13.8839 15.2207H13.8738ZM5.72712 15.2207C5.50535 15.2286 5.29563 15.3236 5.14348 15.4851C4.99134 15.6467 4.90904 15.8617 4.91446 16.0836C4.91964 16.2965 5.00724 16.4992 5.15881 16.6489C5.31038 16.7986 5.5141 16.8836 5.72712 16.8862V16.8862C5.83423 16.8814 5.93924 16.8549 6.03581 16.8083C6.13238 16.7618 6.21851 16.6961 6.28897 16.6153C6.36371 16.5345 6.4217 16.4397 6.45959 16.3364C6.49747 16.2331 6.5145 16.1233 6.50969 16.0133C6.50445 15.7986 6.41547 15.5945 6.26175 15.4445C6.10803 15.2945 5.90175 15.2106 5.68699 15.2107L5.72712 15.2207ZM9.80048 15.2207C9.58223 15.236 9.37793 15.3336 9.22892 15.4938C9.07991 15.654 8.99731 15.8648 8.99785 16.0836C9.00303 16.2965 9.09062 16.4992 9.24219 16.6489C9.39376 16.7986 9.59749 16.8836 9.81051 16.8862V16.8862C10.0314 16.8862 10.2432 16.7984 10.3993 16.6423C10.5555 16.4861 10.6432 16.2743 10.6432 16.0534C10.6432 15.8326 10.5555 15.6208 10.3993 15.4646C10.2432 15.3085 10.0314 15.2207 9.81051 15.2207H9.80048ZM5.7171 11.6189C5.49706 11.6317 5.29027 11.7283 5.13916 11.8887C4.98804 12.0492 4.90405 12.2613 4.90443 12.4818C4.91215 12.6956 5.00192 12.8983 5.1551 13.0478C5.30829 13.1972 5.51313 13.2819 5.72712 13.2844V13.2844C5.94597 13.2728 6.15144 13.1755 6.299 13.0135C6.40659 12.8933 6.47741 12.7447 6.50304 12.5854C6.52867 12.4261 6.50803 12.2628 6.44358 12.1149C6.37913 11.967 6.27359 11.8406 6.13947 11.751C6.00535 11.6613 5.84831 11.612 5.68699 11.6089L5.7171 11.6189ZM9.80048 11.6189C9.58045 11.6317 9.37366 11.7283 9.22254 11.8887C9.07143 12.0492 8.98744 12.2613 8.98781 12.4818C8.98912 12.5885 9.01144 12.6939 9.05349 12.792C9.09555 12.8901 9.15652 12.9789 9.23292 13.0535C9.30931 13.128 9.39964 13.1868 9.49874 13.2264C9.59785 13.266 9.70379 13.2857 9.81051 13.2844V13.2844C10.0314 13.2844 10.2432 13.1966 10.3993 13.0405C10.5555 12.8843 10.6432 12.6725 10.6432 12.4516C10.6432 12.2308 10.5555 12.019 10.3993 11.8628C10.2432 11.7067 10.0314 11.6189 9.81051 11.6189H9.80048ZM13.8839 11.6189C13.6648 11.6242 13.4566 11.7156 13.3044 11.8734C13.1523 12.0311 13.0685 12.2425 13.0712 12.4617V12.4617C13.0764 12.6764 13.1654 12.8805 13.3191 13.0305C13.4729 13.1805 13.6791 13.2644 13.8939 13.2643C14.0977 13.2418 14.2861 13.145 14.4229 12.9922C14.5597 12.8395 14.6354 12.6416 14.6354 12.4366C14.6354 12.2315 14.5597 12.0337 14.4229 11.881C14.2861 11.7282 14.0977 11.6314 13.8939 11.6089L13.8839 11.6189ZM5.31578 4.08422C3.3092 4.28488 2.30591 5.46876 2.30591 7.59573V7.90675H17.3552V7.5556C17.3552 5.42863 16.2817 4.26482 14.2852 4.09426V4.86679C14.2865 4.96776 14.2678 5.068 14.23 5.16167C14.1923 5.25534 14.1364 5.34058 14.0654 5.41245C13.9945 5.48432 13.91 5.54138 13.8168 5.58033C13.7236 5.61927 13.6237 5.63933 13.5227 5.63932C13.3205 5.63753 13.1267 5.55857 12.9809 5.4186C12.9104 5.34559 12.8554 5.25906 12.8191 5.16423C12.7829 5.0694 12.7663 4.96822 12.7702 4.86679V4.05412H6.88091V4.86679C6.88092 5.06995 6.80091 5.26494 6.6582 5.40954C6.51548 5.55413 6.32155 5.63668 6.1184 5.63932C5.91627 5.63753 5.72247 5.55857 5.57663 5.4186C5.43687 5.26859 5.35816 5.0718 5.35591 4.86679V4.08422H5.31578Z" fill="#99A7C7" fill-opacity="0.8"/>
</svg>
