<svg width="23" height="23" viewBox="0 0 23 23" fill="none" xmlns="http://www.w3.org/2000/svg">
<path d="M11.2812 22.5402C9.40993 22.5437 7.5703 22.0576 5.94502 21.1302C5.5925 20.8719 5.17635 20.7145 4.74115 20.6747C4.60118 20.6743 4.46203 20.6962 4.329 20.7398L2.15984 21.3905C2.07749 21.4069 1.99272 21.4069 1.91037 21.3905C1.80637 21.3898 1.70385 21.3661 1.6101 21.3211C1.51634 21.2761 1.43367 21.2109 1.36808 21.1302C1.30438 21.04 1.26245 20.9363 1.24551 20.8271C1.22858 20.718 1.23711 20.6064 1.27047 20.5012L1.99715 18.0717C2.05788 17.9136 2.08258 17.7439 2.06944 17.5751C2.05631 17.4062 2.00567 17.2424 1.92123 17.0956C0.991013 15.4373 0.48784 13.5737 0.457031 11.6726C0.463555 8.84097 1.56316 6.12116 3.52642 4.08056C4.53668 3.04588 5.74365 2.22368 7.07634 1.66232C8.40903 1.10095 9.84052 0.811768 11.2866 0.811768C12.7327 0.811768 14.1642 1.10095 15.4969 1.66232C16.8296 2.22368 18.0365 3.04588 19.0468 4.08056C20.0188 5.07461 20.7919 6.24527 21.3244 7.52954C21.8667 8.83983 22.1467 10.2437 22.1487 11.6618C22.162 13.2185 21.8441 14.7601 21.216 16.1845C20.6361 17.4817 19.7942 18.6448 18.7431 19.601C16.711 21.4795 14.0486 22.5282 11.2812 22.5402V22.5402ZM16.2594 10.3386C15.9848 10.3386 15.7165 10.42 15.4882 10.5726C15.2599 10.7251 15.0819 10.9419 14.9768 11.1956C14.8718 11.4493 14.8443 11.7284 14.8978 11.9977C14.9514 12.267 15.0836 12.5144 15.2778 12.7085C15.4719 12.9027 15.7193 13.0349 15.9886 13.0885C16.2579 13.142 16.537 13.1145 16.7907 13.0095C17.0444 12.9044 17.2612 12.7265 17.4137 12.4982C17.5663 12.2699 17.6477 12.0015 17.6477 11.7269V11.7269C17.6477 11.3587 17.5014 11.0056 17.2411 10.7452C16.9807 10.4849 16.6276 10.3386 16.2594 10.3386V10.3386ZM11.2378 10.3386C10.883 10.3527 10.5475 10.5043 10.3026 10.7615C10.0576 11.0186 9.92236 11.3609 9.92546 11.716C9.92332 11.9906 10.0026 12.2596 10.1534 12.4891C10.3042 12.7186 10.5196 12.8982 10.7724 13.0052C11.0253 13.1123 11.3042 13.142 11.5739 13.0905C11.8436 13.039 12.092 12.9088 12.2876 12.7161C12.4833 12.5235 12.6175 12.2772 12.6731 12.0083C12.7288 11.7394 12.7035 11.4601 12.6004 11.2056C12.4973 10.9511 12.3211 10.7329 12.094 10.5786C11.8669 10.4243 11.5991 10.3408 11.3246 10.3386H11.2378ZM6.25956 10.3386C5.98499 10.3386 5.71659 10.42 5.48829 10.5726C5.25999 10.7251 5.08205 10.9419 4.97698 11.1956C4.8719 11.4493 4.84441 11.7284 4.89797 11.9977C4.95154 12.267 5.08376 12.5144 5.27791 12.7085C5.47207 12.9027 5.71941 13.0349 5.98871 13.0885C6.25801 13.142 6.53716 13.1145 6.79083 13.0095C7.0445 12.9044 7.26134 12.7265 7.41388 12.4982C7.56643 12.2699 7.64783 12.0015 7.64783 11.7269C7.64783 11.3587 7.50156 11.0056 7.24121 10.7452C6.98086 10.4849 6.62775 10.3386 6.25956 10.3386Z" fill="#ADB9D2"/>
</svg>
