<svg width="26" height="19" viewBox="0 0 26 19" fill="none" xmlns="http://www.w3.org/2000/svg">
<path fill-rule="evenodd" clip-rule="evenodd" d="M19.0093 18.3003C19.0093 18.3003 18.2155 17.3635 17.5539 16.5356C20.4428 15.7296 21.5454 13.9431 21.5454 13.9431C20.6412 14.5313 19.7812 14.9453 19.0093 15.2285C17.9067 15.686 16.8482 15.991 15.8117 16.1653C13.6947 16.5574 11.754 16.4485 10.1001 16.1435C8.8431 15.9038 7.76252 15.5553 6.85836 15.2067C6.35115 15.0106 5.79984 14.771 5.24852 14.466C5.21544 14.4442 5.18236 14.4279 5.14928 14.4115C5.11621 14.3952 5.08313 14.3788 5.05005 14.3571C5.00594 14.3353 4.98389 14.3135 4.96184 14.2917C4.56489 14.0738 4.34436 13.9213 4.34436 13.9213C4.34436 13.9213 5.40289 15.6642 8.20357 16.4921C7.54199 17.3199 6.72605 18.3003 6.72605 18.3003C1.85242 18.1478 0 14.9888 0 14.9888C0 7.9738 3.17558 2.28769 3.17558 2.28769C6.35115 -0.0651764 9.37236 0.000181045 9.37236 0.000181045L9.59288 0.261611C5.62341 1.39448 3.79305 3.11556 3.79305 3.11556C3.79305 3.11556 4.27821 2.85413 5.09415 2.48377C7.45378 1.45983 9.32825 1.17662 10.1001 1.11126L10.1495 1.103C10.2608 1.08429 10.3595 1.06769 10.475 1.06769C11.8202 0.893401 13.3418 0.849829 14.9296 1.02412C17.0246 1.26376 19.274 1.87376 21.5675 3.11556C21.5675 3.11556 19.8253 1.48162 16.0764 0.348755L16.3851 0.000181045C16.3851 0.000181045 19.4063 -0.0651764 22.5819 2.28769C22.5819 2.28769 25.7574 7.9738 25.7574 14.9888C25.7574 14.9888 23.883 18.1478 19.0093 18.3003ZM9.37607 8.52153C8.12897 8.52153 7.14443 9.64306 7.14443 11.0113C7.14443 12.3796 8.15085 13.5011 9.37607 13.5011C10.6232 13.5011 11.6077 12.3796 11.6077 11.0113C11.6296 9.64306 10.6232 8.52153 9.37607 8.52153ZM15.1302 11.0113C15.1302 9.64306 16.1147 8.52153 17.3618 8.52153C18.6089 8.52153 19.5934 9.64306 19.5934 11.0113C19.5934 12.3796 18.6089 13.5011 17.3618 13.5011C16.1366 13.5011 15.1302 12.3796 15.1302 11.0113Z" fill="white"/>
</svg>
