<svg width="30" height="23" viewBox="0 0 30 23" fill="none" xmlns="http://www.w3.org/2000/svg">
<path fill-rule="evenodd" clip-rule="evenodd" d="M10.0355 0.972533C8.62819 1.25723 6.63573 1.87096 5.36719 2.41053L4.67677 2.70423L4.28781 3.30856C2.14225 6.64212 0.839015 10.2278 0.396114 14.0161C0.273291 15.0669 0.226765 17.2955 0.305157 18.3744C0.37953 19.398 0.268083 19.2328 1.3881 19.9798C3.16865 21.1671 5.14328 22.1352 7.11927 22.7895C7.55158 22.9327 7.68878 22.958 7.7515 22.906C7.94315 22.7469 9.25561 20.6143 9.25561 20.462C9.25561 20.4413 9.0073 20.319 8.70375 20.1901C7.94037 19.8659 6.90667 19.3204 6.90667 19.2417C6.90667 19.2059 7.01755 19.0889 7.15311 18.9816L7.39955 18.7866L8.20023 19.1143C9.54365 19.6642 10.9741 20.0511 12.5101 20.2801C13.4762 20.424 16.0167 20.424 16.9816 20.2799C18.5142 20.0511 19.8885 19.6831 21.1418 19.1659C22.0899 18.7747 22.0815 18.7756 22.3795 19.0314C22.613 19.2318 22.6208 19.2479 22.521 19.3231C22.3549 19.4481 21.3344 19.9549 20.7753 20.19C20.4958 20.3075 20.2589 20.4289 20.2486 20.4598C20.202 20.5993 21.6626 22.9591 21.7955 22.9591C21.8329 22.9591 22.2042 22.8426 22.6206 22.7003C24.5286 22.0481 26.3598 21.1392 28.1037 19.9787C29.2206 19.2355 29.1093 19.4033 29.1852 18.3461C29.2638 17.2527 29.2195 15.0949 29.0966 14.0161C28.6653 10.2345 27.3651 6.65718 25.2049 3.30856L24.815 2.70423L24.1468 2.42208C23.2878 2.05927 22.038 1.62808 21.1096 1.37423C20.153 1.11262 18.9538 0.865161 18.8449 0.906989C18.7975 0.925158 18.6029 1.26505 18.4125 1.66233C18.2221 2.05961 18.0608 2.39231 18.0541 2.40165C18.0474 2.41099 17.676 2.37363 17.2288 2.31856C16.0753 2.17666 13.3998 2.1766 12.2566 2.31839C11.6833 2.38953 11.4309 2.40165 11.4166 2.35869C11.4054 2.3249 11.2393 1.9858 11.0475 1.60516C10.6525 0.820956 10.6849 0.841163 10.0355 0.972533ZM10.6069 10.2173C11.0792 10.3643 11.3857 10.5557 11.7272 10.9168C12.4321 11.6621 12.6965 12.7574 12.4265 13.8132C11.7842 16.3243 8.80755 16.6925 7.67294 14.4012C7.23598 13.5188 7.23507 12.5043 7.67039 11.62C8.24545 10.4518 9.47437 9.8648 10.6069 10.2173ZM20.5437 10.327C20.9437 10.5142 21.3988 10.9044 21.6605 11.2846C22.0932 11.9133 22.2707 12.9492 22.0825 13.7473C21.7243 15.2662 20.3436 16.2165 19.0107 15.8616C17.2146 15.3834 16.4124 13.1072 17.4327 11.3842C17.6534 11.0115 18.0293 10.6342 18.3919 10.4218C19.0071 10.0613 19.8924 10.0223 20.5437 10.327Z" fill="#727EFF"/>
</svg>
