<svg width="220" height="180" viewBox="0 0 220 180" fill="none" xmlns="http://www.w3.org/2000/svg">
<path d="M212.354 138.356C216.317 138.356 219.53 135.143 219.53 131.18C219.53 127.217 216.317 124.005 212.354 124.005C208.391 124.005 205.179 127.217 205.179 131.18C205.179 135.143 208.391 138.356 212.354 138.356Z" fill="#EAEEF9"/>
<path d="M198.573 158.376C201.28 158.376 203.474 156.182 203.474 153.476C203.474 150.769 201.28 148.575 198.573 148.575C195.867 148.575 193.673 150.769 193.673 153.476C193.673 156.182 195.867 158.376 198.573 158.376Z" fill="#F1F3F9"/>
<path d="M39.7891 38.5971C42.4956 38.5971 44.6896 36.4031 44.6896 33.6966C44.6896 30.9902 42.4956 28.7962 39.7891 28.7962C37.0827 28.7962 34.8887 30.9902 34.8887 33.6966C34.8887 36.4031 37.0827 38.5971 39.7891 38.5971Z" fill="#EAEEF9"/>
<path d="M9.86059 133.106C14.8868 133.106 18.9614 129.031 18.9614 124.005C18.9614 118.978 14.8868 114.904 9.86059 114.904C4.83434 114.904 0.759766 118.978 0.759766 124.005C0.759766 129.031 4.83434 133.106 9.86059 133.106Z" fill="#EAEEF9"/>
<path d="M120.383 178.785C169.387 178.785 209.116 139.056 209.116 89.8766C209.116 40.6972 169.387 0.968628 120.383 0.968628C71.3781 0.968628 31.6495 40.6972 31.6495 89.8766C31.6495 139.056 71.3781 178.785 120.383 178.785Z" fill="#EAEEF9"/>
<path d="M175.685 12.5045C178.347 12.5045 180.599 14.5418 180.599 17.394V161.635C180.599 164.283 178.551 166.524 175.685 166.524H69.0163C66.3547 166.524 64.1025 164.487 64.1025 161.635V17.394C64.1025 14.7455 66.1499 12.5045 69.0163 12.5045H175.685Z" fill="#CED7E2"/>
<path d="M180.599 27.5807V161.431C180.599 164.08 178.552 166.321 175.685 166.321H78.2299L69.6309 157.764L166.472 25.1359L174.866 22.08L180.599 27.5807Z" fill="#BCC4CF"/>
<path d="M175.276 23.7098C175.276 22.8949 174.662 22.08 173.638 22.08H71.2688C70.4498 22.08 69.6309 22.6911 69.6309 23.7098V156.134C69.6309 156.949 70.2451 157.764 71.2688 157.764H173.433C174.252 157.764 175.071 157.153 175.071 156.134L175.276 23.7098Z" fill="#D9DFEE"/>
<path d="M175.276 23.7096C175.276 22.8947 174.662 22.0798 173.638 22.0798H71.2688C70.4499 22.0798 69.6309 22.691 69.6309 23.7096C70.8593 76.4757 71.2688 136.169 65.5361 151.652L163.606 150.226C169.543 123.334 174.048 75.0496 175.276 23.7096Z" fill="#EFF3FB"/>
<g filter="url(#filter0_d_4_730)">
<path d="M175.071 22.2838C175.071 22.2838 174.867 30.2292 172.41 80.958C172.41 81.3654 172.41 81.5692 172.41 81.9766C169.339 131.687 125.115 142.077 119.792 142.688C117.335 142.892 112.626 143.299 104.232 143.299C93.7902 143.707 77.8206 143.911 52.8425 144.114C52.0236 144.114 51.4093 143.299 51.8188 142.484C69.0168 108.054 69.2216 22.4875 69.2216 22.4875L175.071 22.2838Z" fill="white"/>
</g>
<path d="M172.205 81.7728C169.339 131.483 124.911 141.873 119.587 142.484C117.13 142.688 112.421 143.096 104.027 143.096C126.139 132.909 138.014 114.573 137.809 100.312C148.455 101.127 166.882 100.312 172.205 81.7728Z" fill="#EAEEF9"/>
<path d="M147.228 12.912C147.228 12.7083 147.228 12.7083 147.228 12.912L146.204 11.8934C146.204 11.8934 145.59 12.0971 145.385 12.5046H129.416C129.416 12.0971 129.416 11.8934 129.416 11.4859C129.416 8.22624 126.549 5.37402 123.273 5.37402C119.998 5.37402 117.131 8.22624 117.131 11.4859C117.131 11.8934 117.131 12.0971 117.336 12.3008H100.752C99.9332 12.3008 99.1143 12.912 99.1143 14.1344V19.4314C99.1143 23.506 101.981 25.9507 105.871 25.9507H139.857C143.952 25.9507 147.433 23.506 147.433 19.4314V13.9307C147.637 13.5232 147.433 13.1158 147.228 12.912Z" fill="#636F84"/>
<path d="M146.613 12.9121V18.209C146.613 18.6165 146.613 18.8202 146.613 19.2277C145.999 22.6911 143.132 25.5433 139.447 25.5433H105.256C101.57 25.5433 98.7041 22.6911 98.0898 19.2277C98.0898 18.8202 98.0898 18.6165 98.0898 18.209V12.9121C98.0898 12.0971 98.7041 11.0785 99.7277 11.0785H116.516C116.516 10.671 116.516 10.4673 116.516 10.2636C116.516 7.00389 119.383 4.15167 122.658 4.15167C125.934 4.15167 128.801 7.00389 128.801 10.2636C128.801 10.671 128.801 10.8748 128.801 11.0785H145.589C145.999 11.2822 146.613 11.8934 146.613 12.9121Z" fill="url(#paint0_linear_4_730)"/>
<path d="M122.249 13.1159C123.887 13.1159 125.115 11.8935 125.115 10.2637C125.115 8.63382 123.887 7.41144 122.249 7.41144C120.611 7.41144 119.383 8.63382 119.383 10.2637C119.383 11.8935 120.816 13.1159 122.249 13.1159Z" fill="#EAEEF9"/>
<path d="M146.408 19.2278C145.794 22.6912 142.928 25.5434 139.242 25.5434H105.256C101.57 25.5434 98.7041 22.6912 98.0898 19.2278H146.408Z" fill="#9AA1B2"/>
<path d="M144.834 110.292H97.5609C97.236 110.292 96.9111 109.799 96.9111 108.975C96.9111 108.317 97.236 107.658 97.5609 107.658H144.996C145.321 107.658 145.646 108.152 145.646 108.975C145.646 109.634 145.321 110.292 144.834 110.292Z" fill="#AAB2C5"/>
<path d="M119.996 118.196H97.5351C97.2231 118.196 96.9111 117.702 96.9111 116.878C96.9111 116.22 97.2231 115.561 97.5351 115.561H119.996C120.308 115.561 120.62 116.055 120.62 116.878C120.62 117.537 120.308 118.196 119.996 118.196Z" fill="#AAB2C5"/>
<path d="M152.883 51.0207H104.165C103.832 51.0207 103.498 50.5268 103.498 49.7036C103.498 49.045 103.832 48.3864 104.165 48.3864H152.883C153.216 48.3864 153.55 48.8803 153.55 49.7036C153.55 50.5268 153.216 51.0207 152.883 51.0207Z" fill="#AAB2C5"/>
<path d="M151.595 57.6062H133.112C132.793 57.6062 132.475 57.1123 132.475 56.2891C132.475 55.6305 132.793 54.9719 133.112 54.9719H151.595C151.913 54.9719 152.232 55.4659 152.232 56.2891C152.232 57.1123 151.913 57.6062 151.595 57.6062Z" fill="#AAB2C5"/>
<path d="M127.865 57.6062H104.157C103.827 57.6062 103.498 57.1123 103.498 56.2891C103.498 55.6305 103.827 54.9719 104.157 54.9719H127.865C128.195 54.9719 128.524 55.4659 128.524 56.2891C128.524 57.1123 128.195 57.6062 127.865 57.6062Z" fill="#AAB2C5"/>
<path d="M84.9481 58.9236C84.6004 58.9236 84.2528 58.7524 83.9051 58.4101L78.8638 53.617C78.3423 53.1034 78.3423 52.0763 78.8638 51.5628C79.3853 51.0492 80.4283 51.0492 80.9498 51.5628L84.9481 55.5L93.1185 47.4544C93.64 46.9408 94.683 46.9408 95.2045 47.4544C95.7261 47.9679 95.7261 48.995 95.2045 49.5086L85.9911 58.5813C85.6435 58.7524 85.2958 58.9236 84.9481 58.9236Z" fill="#AAB2C5"/>
<path d="M150.266 79.998H102.83C102.506 79.998 102.181 79.504 102.181 78.6808C102.181 78.0222 102.506 77.3636 102.83 77.3636H150.266C150.591 77.3636 150.915 77.8576 150.915 78.6808C150.915 79.3394 150.591 79.998 150.266 79.998Z" fill="#AAB2C5"/>
<path d="M125.226 87.9011H102.804C102.492 87.9011 102.181 87.4072 102.181 86.5839C102.181 85.9254 102.492 85.2668 102.804 85.2668H125.226C125.538 85.2668 125.849 85.7607 125.849 86.5839C126.005 87.2425 125.693 87.9011 125.226 87.9011Z" fill="#AAB2C5"/>
<path d="M82.9712 87.9009C82.6502 87.9009 82.3293 87.7297 82.0084 87.3874L77.5153 82.5943C77.0339 82.0807 77.0339 81.0536 77.5153 80.5401C77.9967 80.0265 78.9595 80.0265 79.4409 80.5401L83.1316 84.4773L90.6735 76.4317C91.1549 75.9181 92.1177 75.9181 92.5991 76.4317C93.0805 76.9452 93.0805 77.9723 92.5991 78.4859L83.934 87.3874C83.7735 87.7297 83.4526 87.9009 82.9712 87.9009Z" fill="#AAB2C5"/>
<path d="M77.7026 118.195C77.3817 118.195 77.0608 118.024 76.7398 117.682L72.2468 112.889C71.7654 112.375 71.7654 111.348 72.2468 110.834C72.7282 110.321 73.691 110.321 74.1724 110.834L77.8631 114.772L85.405 106.726C85.8864 106.213 86.8492 106.213 87.3306 106.726C87.812 107.24 87.812 108.267 87.3306 108.78L78.6654 117.682C78.505 118.024 78.184 118.195 77.7026 118.195Z" fill="#AAB2C5"/>
<path d="M200.548 152.891C199.872 155.765 198.858 158.807 197.675 161.343C194.463 167.597 189.392 172.499 183.138 175.711C176.715 178.923 169.108 180.275 161.501 178.585C143.584 174.866 132.089 157.286 135.808 139.368C139.527 121.451 156.937 109.787 174.855 113.675C181.278 115.028 186.857 118.239 191.59 122.634C199.534 130.579 202.915 142.073 200.548 152.891Z" fill="url(#paint1_linear_4_730)"/>
<path d="M178.742 143.256H171.136V135.649C171.136 134.128 169.952 132.776 168.262 132.776C166.741 132.776 165.388 133.959 165.388 135.649V143.256H157.782C156.26 143.256 154.908 144.439 154.908 146.13C154.908 147.82 156.091 149.003 157.782 149.003H165.388V156.61C165.388 158.131 166.572 159.483 168.262 159.483C169.783 159.483 171.136 158.3 171.136 156.61V149.003H178.742C180.263 149.003 181.616 147.82 181.616 146.13C181.616 144.439 180.263 143.256 178.742 143.256Z" fill="white"/>
<defs>
<filter id="filter0_d_4_730" x="29.6885" y="11.2838" width="167.383" height="165.831" filterUnits="userSpaceOnUse" color-interpolation-filters="sRGB">
<feFlood flood-opacity="0" result="BackgroundImageFix"/>
<feColorMatrix in="SourceAlpha" type="matrix" values="0 0 0 0 0 0 0 0 0 0 0 0 0 0 0 0 0 0 127 0" result="hardAlpha"/>
<feOffset dy="11"/>
<feGaussianBlur stdDeviation="11"/>
<feColorMatrix type="matrix" values="0 0 0 0 0.397708 0 0 0 0 0.47749 0 0 0 0 0.575 0 0 0 0.27 0"/>
<feBlend mode="normal" in2="BackgroundImageFix" result="effect1_dropShadow_4_730"/>
<feBlend mode="normal" in="SourceGraphic" in2="effect1_dropShadow_4_730" result="shape"/>
</filter>
<linearGradient id="paint0_linear_4_730" x1="98.1484" y1="14.8501" x2="146.66" y2="14.8501" gradientUnits="userSpaceOnUse">
<stop stop-color="#B0BACC"/>
<stop offset="1" stop-color="#969EAE"/>
</linearGradient>
<linearGradient id="paint1_linear_4_730" x1="135.079" y1="146.129" x2="201.302" y2="146.129" gradientUnits="userSpaceOnUse">
<stop stop-color="#B0BACC"/>
<stop offset="1" stop-color="#969EAE"/>
</linearGradient>
</defs>
</svg>
