<svg width="18" height="19" viewBox="0 0 18 19" fill="none" xmlns="http://www.w3.org/2000/svg">
<path fill-rule="evenodd" clip-rule="evenodd" d="M4.83101 2.2247C2.54903 3.45523 0.671217 4.47199 0.658155 4.48422C0.645053 4.4964 2.51725 5.52015 4.81858 6.75915L9.00279 9.01194L13.1664 6.7697C15.4564 5.5365 17.3329 4.51531 17.3365 4.50041C17.342 4.47705 9.13345 0.0342145 9.02151 3.63229e-05C8.99873 -0.00694792 7.11299 0.994176 4.83101 2.2247ZM0 9.97454V14.4749L0.147823 14.5573C0.229142 14.6026 2.11524 15.62 4.3392 16.8184L8.38274 18.9971L8.39286 14.4979C8.4009 10.9285 8.39266 9.99003 8.35304 9.95652C8.29406 9.90663 0.169805 5.5349 0.0689337 5.49879C0.00382305 5.4755 0 5.72243 0 9.97454ZM13.7987 7.71339C11.5208 8.94013 9.64358 9.95645 9.62705 9.97186C9.61053 9.98724 9.60157 12.0249 9.60714 14.4999L9.61726 19L13.7122 16.7943C15.9645 15.5811 17.8506 14.562 17.9036 14.5296L18 14.4707V9.97639C18 7.50453 17.9866 5.48226 17.9701 5.48248C17.9537 5.4827 16.0765 6.48661 13.7987 7.71339Z" fill="#FE7762"/>
</svg>
