<svg width="21" height="21" viewBox="0 0 21 21" fill="none" xmlns="http://www.w3.org/2000/svg">
<path d="M14.8779 20.9487C14.5435 20.9487 14.2124 20.8827 13.9035 20.7544C13.5947 20.6262 13.3143 20.4382 13.0783 20.2012C12.8423 19.9643 12.6554 19.6831 12.5283 19.3738C12.4013 19.0645 12.3365 18.7331 12.3379 18.3987V14.9987C12.3325 14.3241 12.5947 13.6749 13.0671 13.1932C13.5394 12.7115 14.1833 12.4366 14.8579 12.4287H18.2579C18.5927 12.43 18.9241 12.4973 19.233 12.6267C19.5418 12.756 19.8222 12.945 20.0581 13.1827C20.2939 13.4204 20.4807 13.7022 20.6076 14.0121C20.7345 14.322 20.7992 14.6539 20.7979 14.9887V18.3887C20.7992 18.7236 20.7345 19.0554 20.6076 19.3653C20.4807 19.6752 20.2939 19.9571 20.0581 20.1948C19.8222 20.4325 19.5418 20.6214 19.233 20.7508C18.9241 20.8802 18.5927 20.9474 18.2579 20.9487H14.8779ZM3.33786 20.9487C3.00299 20.9474 2.67166 20.8802 2.36278 20.7508C2.0539 20.6214 1.77354 20.4325 1.53768 20.1948C1.30182 19.9571 1.11508 19.6752 0.988149 19.3653C0.861213 19.0554 0.796556 18.7236 0.797871 18.3887V14.9887C0.795205 14.3115 1.06101 13.6608 1.53707 13.1791C2.01313 12.6974 2.66065 12.424 3.33786 12.4187H6.71787C7.39162 12.424 8.03614 12.6947 8.51163 13.172C8.98713 13.6494 9.25527 14.295 9.25788 14.9687V18.3887C9.26051 18.7231 9.19709 19.0548 9.07125 19.3646C8.94541 19.6744 8.75962 19.9563 8.52456 20.1942C8.28949 20.432 8.00977 20.6211 7.70145 20.7506C7.39313 20.8801 7.06227 20.9474 6.72786 20.9487H3.33786ZM14.8779 9.47873C14.2042 9.47873 13.5582 9.21112 13.0818 8.73478C12.6055 8.25844 12.3379 7.61238 12.3379 6.93873V3.51873C12.3352 2.8415 12.601 2.1908 13.0771 1.70911C13.5531 1.22743 14.2007 0.954016 14.8779 0.94873H18.2579C18.9351 0.954016 19.5826 1.22743 20.0587 1.70911C20.5347 2.1908 20.8005 2.8415 20.7979 3.51873V6.91873C20.8005 7.25397 20.7368 7.58641 20.6103 7.89689C20.4838 8.20737 20.2971 8.48974 20.061 8.72772C19.8249 8.96571 19.544 9.15459 19.2345 9.28349C18.925 9.41238 18.5931 9.47874 18.2579 9.47873H14.8779ZM3.33786 9.47873C3.00346 9.47873 2.67237 9.4127 2.36355 9.28443C2.05472 9.15616 1.77427 8.96817 1.53827 8.73125C1.30228 8.49433 1.1154 8.21314 0.988347 7.90382C0.86129 7.59449 0.796555 7.26312 0.797871 6.92873V3.52873C0.795205 2.8515 1.06101 2.2008 1.53707 1.71912C2.01313 1.23743 2.66065 0.964018 3.33786 0.958733H6.71787C7.05274 0.960043 7.38407 1.02729 7.69295 1.15665C8.00183 1.28602 8.28221 1.47495 8.51807 1.71267C8.75393 1.95039 8.94067 2.23224 9.0676 2.54212C9.19454 2.85201 9.25919 3.18386 9.25788 3.51873V6.91873C9.26052 7.25229 9.19741 7.5831 9.07219 7.89228C8.94698 8.20146 8.76209 8.48294 8.52808 8.72066C8.29408 8.95838 8.01555 9.14768 7.70838 9.27775C7.40121 9.40782 7.07143 9.47611 6.73787 9.47873H3.33786Z" fill="#AD7EFF"/>
</svg>
