<svg width="27" height="27" viewBox="0 0 27 27" fill="none" xmlns="http://www.w3.org/2000/svg">
<path d="M13.1968 5.39586C15.0595 5.3672 16.8609 6.06116 18.223 7.33211L21.8918 3.74461C19.538 1.53904 16.4222 0.329625 13.1968 0.369613C10.7868 0.369056 8.42426 1.03891 6.37325 2.30426C4.32225 3.56961 2.66367 5.38057 1.58301 7.53461L5.78676 10.7984C6.30077 9.23543 7.29243 7.87328 8.62188 6.904C9.95134 5.93472 11.5515 5.40721 13.1968 5.39586Z" fill="#E43E2B"/>
<path d="M25.6763 13.6587C25.6916 12.7651 25.5993 11.8728 25.4013 11.0012H13.1963V15.8262H20.3613C20.2254 16.6722 19.9198 17.4819 19.4629 18.2066C19.0059 18.9314 18.4072 19.5563 17.7025 20.0437L21.805 23.2212C23.0836 21.9868 24.0891 20.498 24.7565 18.8509C25.424 17.2038 25.7386 15.435 25.68 13.6587H25.6763Z" fill="#3B7DED"/>
<path d="M5.80172 15.9402C5.51749 15.1126 5.37096 14.244 5.36797 13.3689C5.37315 12.4953 5.51443 11.6278 5.78672 10.7977L1.58297 7.53394C0.671209 9.34411 0.196289 11.3427 0.196289 13.3696C0.196289 15.3964 0.671209 17.395 1.58297 19.2052L5.80172 15.9402Z" fill="#F0B501"/>
<path d="M13.1969 26.3694C16.3635 26.459 19.4441 25.3322 21.8056 23.2207L17.7031 20.0432C16.373 20.9349 14.7977 21.3894 13.1969 21.3432C11.5531 21.3334 9.95403 20.8063 8.62666 19.8365C7.29929 18.8668 6.31096 17.5037 5.80189 15.9407L1.59814 19.2057C2.67589 21.3588 4.33175 23.1693 6.38029 24.4345C8.42882 25.6998 10.7891 26.3697 13.1969 26.3694Z" fill="#2BA24C"/>
</svg>
