<svg width="23" height="22" viewBox="0 0 23 22" fill="none" xmlns="http://www.w3.org/2000/svg">
<path d="M11.3667 21.2594L11.0852 21.0862C8.60201 19.531 6.29074 17.7169 4.19022 15.6741C2.74066 14.2049 1.63204 12.4348 0.942952 10.4893C0.326372 8.62472 0.379983 6.6034 1.09451 4.77411C1.45671 3.87441 2.01174 3.06505 2.72052 2.40302C3.4293 1.74099 4.27458 1.24239 5.19686 0.942336C5.50868 0.833675 5.83191 0.761045 6.16024 0.725855H6.29012C6.59007 0.672274 6.89483 0.650499 7.19935 0.660904H7.31844C7.99374 0.671517 8.66278 0.792168 9.29926 1.01811H9.3642C9.40119 1.03206 9.4345 1.05427 9.46161 1.08305C9.69923 1.14963 9.92813 1.2441 10.1435 1.36448L10.5549 1.54849C10.6643 1.60939 10.7692 1.67812 10.8688 1.75415L11.0203 1.86239C11.1204 1.91348 11.2148 1.97517 11.3017 2.04641C12.4808 1.13022 13.9326 0.634878 15.4258 0.639259C16.1098 0.629746 16.7905 0.735875 17.4391 0.953163C18.3546 1.24918 19.1938 1.74299 19.8971 2.39957C20.6005 3.05616 21.1508 3.85945 21.509 4.75247C22.2086 6.5842 22.2658 8.59916 21.6713 10.4677C20.989 12.4228 19.8797 14.2013 18.4241 15.6741C16.3334 17.7101 14.0372 19.5239 11.5723 21.0862L11.3017 21.2486L11.3667 21.2594ZM16.6814 4.05971C16.4719 4.05745 16.2686 4.13026 16.1081 4.26497C15.9477 4.39967 15.8408 4.58736 15.8068 4.79406C15.7728 5.00077 15.8139 5.21281 15.9227 5.39182C16.0315 5.57083 16.2008 5.70496 16.3999 5.76994C16.7428 5.90193 17.0373 6.13528 17.2443 6.43889C17.4512 6.74249 17.5607 7.10194 17.5581 7.46934V7.46934C17.5447 7.58853 17.5556 7.70921 17.5901 7.82408C17.6246 7.93896 17.682 8.04565 17.7589 8.13771C17.8358 8.22977 17.9305 8.30529 18.0374 8.35971C18.1443 8.41413 18.2611 8.44633 18.3808 8.45435C18.599 8.44459 18.8061 8.35569 18.9635 8.20428C19.1208 8.05288 19.2177 7.84933 19.2359 7.63171V7.50181C19.2541 6.76582 19.0445 6.04217 18.6356 5.42989C18.2268 4.81761 17.6388 4.34662 16.952 4.08136C16.8637 4.0588 16.7722 4.05148 16.6814 4.05971V4.05971Z" fill="#ADB9D2"/>
</svg>
