<svg width="25" height="24" viewBox="0 0 25 24" fill="none" xmlns="http://www.w3.org/2000/svg">
<path d="M12.5799 24L12.2536 23.7984C9.37446 21.9884 6.69471 19.8769 4.2593 17.4994C2.57863 15.7894 1.29327 13.7292 0.494323 11.4649C-0.220558 9.29478 -0.158399 6.94221 0.67004 4.81314C1.08999 3.766 1.7335 2.824 2.55529 2.05348C3.37707 1.28296 4.3571 0.702659 5.42643 0.353428C5.78796 0.22696 6.16272 0.142427 6.54339 0.10147H6.69398C7.04175 0.0391082 7.3951 0.0137652 7.74817 0.0258753H7.88624C8.66921 0.0382278 9.44491 0.178651 10.1829 0.441614H10.2582C10.301 0.457854 10.3397 0.483703 10.3711 0.517199C10.6466 0.594696 10.912 0.704646 11.1618 0.844752L11.6387 1.05892C11.7656 1.12979 11.8872 1.20979 12.0026 1.29828L12.1783 1.42426C12.2944 1.48372 12.4038 1.55552 12.5046 1.63844C13.8717 0.572106 15.5549 -0.00441567 17.2861 0.000683436C18.0792 -0.0103882 18.8684 0.113133 19.6204 0.366028C20.6819 0.710561 21.6549 1.28529 22.4703 2.04947C23.2858 2.81366 23.9238 3.74858 24.3392 4.78795C25.1503 6.91987 25.2167 9.26502 24.5274 11.4397C23.7363 13.7152 22.4502 15.7853 20.7624 17.4994C18.3384 19.8691 15.6762 21.98 12.8183 23.7984L12.5046 23.9874L12.5799 24ZM18.7419 3.98167C18.499 3.97903 18.2633 4.06378 18.0773 4.22056C17.8913 4.37734 17.7673 4.59579 17.7279 4.83637C17.6884 5.07694 17.7361 5.32374 17.8623 5.53208C17.9884 5.74042 18.1847 5.89654 18.4156 5.97216C18.8131 6.12579 19.1546 6.39738 19.3945 6.75074C19.6344 7.1041 19.7614 7.52245 19.7585 7.95006C19.7429 8.08878 19.7555 8.22923 19.7955 8.36293C19.8355 8.49663 19.9021 8.6208 19.9912 8.72795C20.0803 8.8351 20.1902 8.923 20.3141 8.98634C20.4381 9.04968 20.5735 9.08715 20.7123 9.09649C20.9652 9.08512 21.2053 8.98166 21.3878 8.80544C21.5703 8.62922 21.6826 8.39232 21.7037 8.13903V7.98785C21.7248 7.13124 21.4817 6.289 21.0077 5.57639C20.5337 4.86377 19.8519 4.3156 19.0557 4.00687C18.9533 3.98061 18.8472 3.97208 18.7419 3.98167Z" fill="#FE7762"/>
</svg>
