<svg width="460" height="391" viewBox="0 0 460 391" fill="none" xmlns="http://www.w3.org/2000/svg">
<path d="M453.919 0.860625C454.215 0.570757 454.69 0.575638 454.98 0.871526L459.704 5.6933C459.994 5.98919 459.989 6.46404 459.693 6.7539C459.397 7.04377 458.922 7.03889 458.632 6.743L454.433 2.45698L450.147 6.65579C449.851 6.94566 449.377 6.94078 449.087 6.64489C448.797 6.349 448.802 5.87416 449.098 5.58429L453.919 0.860625ZM347.955 213.436L347.913 212.688L347.955 213.436ZM265.964 95.8656L266.358 96.5036L265.964 95.8656ZM373.698 243.352L374.416 243.57L373.698 243.352ZM455.194 1.40409C454.963 23.9073 447.891 75.9167 431.081 122.858C422.676 146.331 411.818 168.586 398.126 185.258C384.43 201.934 367.843 213.086 347.996 214.185L347.913 212.688C367.198 211.62 383.43 200.788 396.967 184.306C410.506 167.82 421.293 145.744 429.669 122.352C446.423 75.5668 453.465 23.7231 453.694 1.38867L455.194 1.40409ZM347.996 214.185C298.796 216.91 267.723 193.724 254.171 166.554C240.669 139.483 244.527 108.233 265.569 95.2276L266.358 96.5036C246.251 108.93 242.19 139.174 255.514 165.885C268.787 192.496 299.285 215.38 347.913 212.688L347.996 214.185ZM265.569 95.2276C280.276 86.1382 295.79 86.7181 310.388 93.7137C324.955 100.695 338.624 114.063 349.801 130.601C372.136 163.651 384.728 209.692 374.416 243.57L372.981 243.133C383.114 209.844 370.748 164.276 348.558 131.441C337.472 115.037 323.988 101.894 309.74 95.0664C295.522 88.2531 280.56 87.7265 266.358 96.5036L265.569 95.2276ZM374.416 243.57C361.236 286.867 333.26 332.546 275.753 361.249C218.269 389.94 131.381 401.617 0.475559 377.155L0.751071 375.68C131.478 400.109 217.999 388.398 275.083 359.907C332.143 331.427 359.893 286.128 372.981 243.133L374.416 243.57Z" fill="#99A7C7"/>
</svg>
