<svg width="190" height="58" viewBox="0 0 190 58" fill="none" xmlns="http://www.w3.org/2000/svg">
<path d="M0 52.1253V12.0266H22.1574V17.7549H26.5889V23.4833H31.0204V40.6685H26.5889V46.3969H22.1574V52.1253H0ZM8.86297 46.3969H17.7259V40.6685H22.1574V23.4833H17.7259V17.7549H8.86297V46.3969ZM48.7464 29.2117H53.1778V34.9401H48.7464V52.1253H39.8834V23.4833H48.7464V29.2117ZM66.4723 23.4833V29.2117H53.1778V23.4833H66.4723ZM75.3353 52.1253V46.3969H70.9038V29.2117H75.3353V23.4833H97.4927V29.2117H101.924V46.3969H97.4927V52.1253H75.3353ZM79.7668 46.3969H93.0612V29.2117H79.7668V46.3969ZM106.356 57.8537V23.4833H132.945V29.2117H137.376V40.6685H132.945V46.3969H115.219V57.8537H106.356ZM115.219 40.6685H128.513V29.2117H115.219V40.6685Z" fill="black"/>
<path d="M161.782 13.7392C162.947 13.7392 164.003 13.963 164.949 14.4105C165.896 14.858 166.698 15.4697 167.356 16.2454C168.025 17.0211 168.539 17.9311 168.896 18.9753C169.254 20.0046 169.433 21.1011 169.433 22.2647V35.8696C169.433 37.0332 169.254 38.1371 168.896 39.1814C168.539 40.2106 168.025 41.1132 167.356 41.8889C166.698 42.6646 165.896 43.2762 164.949 43.7238C164.003 44.1713 162.947 44.3951 161.782 44.3951H156.45C155.284 44.3951 154.229 44.1713 153.282 43.7238C152.336 43.2762 151.528 42.6646 150.859 41.8889C150.201 41.1132 149.693 40.2106 149.336 39.1814C148.978 38.1371 148.799 37.0332 148.799 35.8696V22.2647C148.799 21.1011 148.978 20.0046 149.336 18.9753C149.693 17.9311 150.201 17.0211 150.859 16.2454C151.528 15.4697 152.336 14.858 153.282 14.4105C154.229 13.963 155.284 13.7392 156.45 13.7392H161.782ZM164.049 19.3333L163.79 17.4537L162.699 16.0216L160.951 15.7531H157.194L155.463 16.0216L154.373 17.4537L154.113 19.3333V29.9622L154.373 31.8419L155.463 33.2515L157.194 33.5425H161.557L163.582 33.2068L163.149 30.7901L161.522 31.1481H157.316L156.208 30.9244L155.966 29.5818V24.9722H164.049V19.3333ZM155.966 22.6227V19.6019L156.104 18.3264L157.316 18.0802H160.847L162.024 18.3264L162.197 19.6466V22.6227H155.966ZM182.278 13.7392C183.443 13.7392 184.499 13.963 185.445 14.4105C186.392 14.858 187.194 15.4697 187.851 16.2454C188.52 17.0211 189.035 17.9311 189.392 18.9753C189.75 20.0046 189.929 21.1011 189.929 22.2647V35.8696C189.929 37.0332 189.75 38.1371 189.392 39.1814C189.035 40.2106 188.52 41.1132 187.851 41.8889C187.194 42.6646 186.392 43.2762 185.445 43.7238C184.499 44.1713 183.443 44.3951 182.278 44.3951H176.946C175.78 44.3951 174.724 44.1713 173.778 43.7238C172.832 43.2762 172.024 42.6646 171.355 41.8889C170.696 41.1132 170.189 40.2106 169.831 39.1814C169.473 38.1371 169.294 37.0332 169.294 35.8696V22.2647C169.294 21.1011 169.473 20.0046 169.831 18.9753C170.189 17.9311 170.696 17.0211 171.355 16.2454C172.024 15.4697 172.832 14.858 173.778 14.4105C174.724 13.963 175.78 13.7392 176.946 13.7392H182.278ZM179.577 16.1111L178.625 15.7531H176.357L174.903 16.0664L173.795 17.4985V34.2585H175.648V18.3264C175.809 18.2816 175.953 18.2518 176.08 18.2369C176.207 18.222 176.345 18.1846 176.496 18.125H178.469C178.596 18.1846 178.717 18.222 178.833 18.2369C178.96 18.2518 179.086 18.2816 179.213 18.3264V27.8141H181.066V18.3264L181.81 18.125H183.801C183.939 18.1846 184.078 18.222 184.216 18.2369C184.355 18.2518 184.499 18.2816 184.649 18.3264V34.2585H186.484V17.4985L185.393 16.0664L183.939 15.7531H181.672L180.737 16.1111L180.148 17.6551L179.577 16.1111Z" fill="#FFB800"/>
</svg>
