<svg width="110" height="52" viewBox="0 0 110 52" fill="none" xmlns="http://www.w3.org/2000/svg">
<path d="M0.718872 51.5809C1.79955 46.1389 2.84164 40.8319 3.84513 35.6601C4.23109 33.4987 4.63634 31.2409 5.0609 28.8866C5.52405 26.4936 5.9486 24.1586 6.33456 21.8814C6.72051 19.5657 7.06788 17.3464 7.37664 15.2237C7.724 13.0623 7.99418 11.0939 8.18715 9.3185C9.38362 9.24131 10.5415 9.16411 11.6608 9.08692C12.6643 9.00973 13.6871 8.95184 14.7291 8.91324C15.7712 8.83605 16.6975 8.75886 17.508 8.68167C18.0098 11.6535 18.4536 14.4903 18.8396 17.192C19.0326 18.3499 19.2255 19.5657 19.4185 20.8393C19.6501 22.0744 19.8624 23.2709 20.0554 24.4287C20.2483 25.5866 20.4413 26.7059 20.6343 27.7866C20.8273 28.8287 21.0202 29.755 21.2132 30.5655C21.3676 29.755 21.5413 28.8287 21.7343 27.7866C21.9272 26.7059 22.1395 25.5866 22.3711 24.4287C22.6027 23.2323 22.8342 22.0165 23.0658 20.7814C23.336 19.5464 23.5869 18.3499 23.8184 17.192C24.3974 14.4903 24.9956 11.6728 25.6131 8.73956L32.6762 7.87115C31.3639 13.6605 30.206 19.1411 29.2026 24.313C28.7394 26.5515 28.2763 28.8094 27.8131 31.0865C27.3886 33.3637 26.9833 35.5636 26.5973 37.6864C26.2114 39.8092 25.8833 41.7775 25.6131 43.5915C25.343 45.3669 25.1307 46.8722 24.9763 48.1072C24.8605 48.1072 24.3974 48.2037 23.5869 48.3967C22.815 48.5511 21.908 48.7441 20.8659 48.9757C19.8624 49.2072 18.8396 49.4581 17.7975 49.7283C16.794 49.9598 16.0414 50.1528 15.5396 50.3072C15.2695 47.1809 14.98 44.2091 14.6712 41.3916C14.5555 40.1951 14.4204 38.9601 14.266 37.6864C14.1116 36.4127 13.9572 35.197 13.8028 34.0391C13.6871 32.8812 13.552 31.8005 13.3976 30.797C13.2818 29.755 13.166 28.8866 13.0502 28.1918C12.9344 28.8866 12.7801 29.7357 12.5871 30.7392C12.3941 31.7426 12.2011 32.8233 12.0081 33.9812C11.8152 35.1005 11.6222 36.2776 11.4292 37.5127C11.2362 38.7092 11.0239 39.8863 10.7924 41.0442C10.2906 43.7845 9.75028 46.6406 9.17135 49.6125L0.718872 51.5809Z" fill="#AD7EFF"/>
<path d="M33.7255 49.9019C32.6448 50.0949 31.4676 50.3265 30.194 50.5967C28.9203 50.8668 27.801 51.1177 26.8361 51.3493C27.2993 49.6897 27.7431 47.8371 28.1677 45.7915C28.6309 43.7073 29.0747 41.5267 29.4993 39.2495C29.9624 36.9724 30.387 34.6759 30.7729 32.3602C31.1975 30.0058 31.6027 27.748 31.9887 25.5866C32.7992 20.4534 33.6097 15.1465 34.4202 9.66586L53.8146 8.68167L52.1357 15.8026H43.0464L41.2517 26.1077C42.4481 26.0691 43.5867 26.0498 44.6674 26.0498C45.5551 26.0498 46.4621 26.0498 47.3884 26.0498C48.3147 26.0498 49.0287 26.0305 49.5305 25.9919C49.4147 27.0726 49.2603 28.1339 49.0673 29.176C48.9129 30.2181 48.7585 31.2602 48.6042 32.3023C48.1024 32.3023 47.3884 32.3023 46.4621 32.3023C45.5358 32.2637 44.5709 32.2251 43.5674 32.1865C42.6025 32.1479 41.5025 32.1093 40.2675 32.0707L37.6044 49.1493C36.2921 49.3809 34.9992 49.6318 33.7255 49.9019Z" fill="#AD7EFF"/>
<path fill-rule="evenodd" clip-rule="evenodd" d="M78.6966 0.0307272C78.1607 0.159411 77.8287 0.335764 77.7836 0.515493C77.7554 0.627792 77.9091 1.35099 78.1539 2.2582C78.9618 5.25208 78.9215 5.58256 77.403 8.40742C76.2713 10.5127 75.9643 11.2071 75.6689 12.3303C75.4413 13.1956 75.4191 13.3975 75.4115 14.6767C75.4043 15.909 75.426 16.1547 75.5932 16.7321C75.8473 17.61 76.2202 18.2939 76.7196 18.7983C77.7222 19.8107 79.1722 19.9927 79.8088 19.186C80.0338 18.9009 80.0041 18.514 79.6983 17.7497C79.3252 16.8171 79.2135 16.2777 79.1728 15.2118C79.1118 13.6099 79.2432 13.2118 80.7019 10.5756C81.5408 9.05957 82.0038 7.96267 82.2374 6.93757C82.2683 6.80172 82.2898 6.04872 82.2852 5.26427C82.2754 3.60834 82.1178 2.69875 81.6963 1.86358C81.3829 1.24281 80.6517 0.496474 80.0908 0.224946C79.7095 0.04036 79.0429 -0.0525095 78.6966 0.0307272ZM69.4085 1.46395C68.8433 1.63355 68.8299 1.78067 69.2285 3.43849C69.7304 5.52641 69.6285 6.08816 68.3378 8.3521C67.1079 10.5093 66.8474 11.2917 66.8489 12.8242C66.8503 14.2846 67.2358 15.5033 67.9505 16.3062C68.3829 16.7919 68.7662 16.9938 69.4919 17.1181C70.1932 17.2383 70.6098 17.1658 70.8304 16.8855C71.0507 16.6053 71.0425 16.471 70.7479 15.5412C70.4609 14.6353 70.2576 13.5627 70.2576 12.9542C70.2576 12.2306 70.4731 11.6345 71.1655 10.4427C71.8695 9.23098 72.3111 8.2286 72.5825 7.22671C72.7121 6.74812 72.7499 6.35688 72.7499 5.49677C72.7499 3.30298 72.1358 2.03203 70.8376 1.5387C70.4055 1.37454 69.8102 1.34333 69.4085 1.46395ZM87.6312 1.4721C87.5189 1.51689 87.3594 1.61469 87.2769 1.68945C87.0957 1.85337 87.1188 2.04916 87.4869 3.47966C87.6785 4.22426 87.7413 4.65016 87.7418 5.20861C87.7424 6.14801 87.5709 6.60808 86.5524 8.39919C85.3829 10.4557 85.0808 11.363 85.0792 12.8242C85.0771 14.7138 85.8026 16.312 86.9071 16.8515C87.562 17.1713 88.4544 17.2763 88.8369 17.0785C89.286 16.8463 89.3257 16.5776 89.042 15.6916C88.6473 14.4597 88.5124 13.6532 88.549 12.7437C88.5847 11.8538 88.6429 11.7086 89.6315 10.0407C90.1733 9.12683 90.6938 7.83703 90.8742 6.96161C91.041 6.15262 91.0418 4.84685 90.8759 4.03194C90.6177 2.76313 90.1317 2.04809 89.2349 1.61749C88.7116 1.3663 88.0474 1.30604 87.6312 1.4721ZM59.3899 26.3888C59.3899 30.2618 59.606 31.9007 60.4564 34.4773C61.7551 38.4125 64.1778 41.9113 67.2023 44.2198L67.9755 44.8099L60.9452 44.851C53.2106 44.8963 53.7092 44.861 53.1998 45.3994C52.5257 46.1119 52.7146 47.35 53.5744 47.8539L53.9294 48.062H56.976H60.0225L60.116 48.3742C60.2367 48.7768 60.6047 49.1259 61.0067 49.2192C61.4273 49.3168 95.0602 49.3168 95.4807 49.2192C95.8874 49.1249 96.2537 48.7735 96.361 48.3746L96.4452 48.062H99.5134H102.581L102.956 47.8243C103.778 47.3033 103.943 46.0923 103.288 45.3994C102.778 44.861 103.277 44.8963 95.5397 44.851L88.5069 44.8099L89.159 44.3206C89.9676 43.7141 91.4848 42.2453 92.2827 41.2966C93.0311 40.4069 94.1448 38.7318 94.7092 37.6471C94.9448 37.1942 95.1504 36.8104 95.1661 36.7942C95.1816 36.7779 95.3047 36.8431 95.4395 36.9391C95.9201 37.2813 97.1511 37.8453 97.8761 38.0553C98.9205 38.358 100.022 38.4575 101.749 38.4054C103.473 38.3535 104.101 38.2212 105.277 37.6622C107.197 36.7505 108.616 34.99 109.117 32.898C109.315 32.0718 109.337 30.5916 109.164 29.7727C108.649 27.3445 106.738 25.216 104.407 24.4748C103.373 24.1458 102.877 24.1048 99.9174 24.1043L97.0975 24.1036V23.8566V23.6096H78.2437H59.3899V26.3888ZM103.625 28.2053C104.639 28.7043 105.296 29.5825 105.505 30.7171C105.773 32.1735 104.964 33.6628 103.538 34.3386L102.984 34.6008L101.379 34.6282C100.113 34.6499 99.6514 34.6274 99.197 34.522C98.4035 34.3379 97.4852 33.8658 96.948 33.3658L96.4975 32.9465L96.6747 32.0664C96.8981 30.9561 97.0975 29.2671 97.0975 28.4844V27.8832L100.084 27.9075L103.07 27.932L103.625 28.2053Z" fill="black"/>
</svg>
