<svg width="20" height="24" viewBox="0 0 20 24" fill="none" xmlns="http://www.w3.org/2000/svg">
<path d="M6.02961 23.3545C5.33963 23.3516 4.65698 23.2128 4.02065 22.946C3.38431 22.6793 2.80676 22.2898 2.32095 21.7998C1.83514 21.3098 1.45057 20.729 1.18925 20.0904C0.927929 19.4518 0.794951 18.768 0.7979 18.078V6.00143C0.794907 4.66827 1.32011 3.3882 2.25859 2.44132C3.19707 1.49444 4.47241 0.957859 5.80554 0.948975H11.7206C11.8564 0.951834 11.9858 1.00704 12.0818 1.10307C12.1779 1.1991 12.2331 1.32852 12.2359 1.4643V5.0716C12.233 5.56003 12.3263 6.04426 12.5105 6.49664C12.6946 6.94902 12.9661 7.36068 13.3094 7.70814C13.6527 8.05559 14.0611 8.33202 14.5112 8.52165C14.9613 8.71128 15.4444 8.81039 15.9329 8.81332H19.2937C19.4255 8.81329 19.552 8.86486 19.6462 8.957C19.7405 9.04913 19.7949 9.17449 19.7978 9.30625V18.2685C19.8007 18.9261 19.6742 19.5778 19.4252 20.1865C19.1763 20.7952 18.8099 21.3489 18.347 21.816C17.884 22.2831 17.3337 22.6544 16.7272 22.9088C16.1208 23.1631 15.4702 23.2956 14.8126 23.2985L6.02961 23.3545ZM6.02961 16.2408C6.03528 16.4618 6.1256 16.6722 6.28195 16.8286C6.43831 16.985 6.64877 17.0753 6.86982 17.081H12.8969C13.1179 17.0753 13.3284 16.985 13.4848 16.8286C13.6411 16.6722 13.7314 16.4618 13.7371 16.2408C13.7342 16.0188 13.6447 15.8068 13.4878 15.6499C13.3308 15.4929 13.1188 15.4035 12.8969 15.4006H6.86982C6.64979 15.4034 6.43938 15.4913 6.28274 15.6458C6.1261 15.8004 6.03538 16.0096 6.02961 16.2296V16.2408ZM6.02961 10.6394C6.03538 10.8594 6.1261 11.0686 6.28274 11.2231C6.43938 11.3777 6.64979 11.4656 6.86982 11.4684H10.6115C10.7293 11.482 10.8485 11.4706 10.9615 11.4349C11.0745 11.3992 11.1787 11.34 11.2672 11.2612C11.3557 11.1824 11.4265 11.0857 11.475 10.9776C11.5235 10.8695 11.5486 10.7523 11.5486 10.6338C11.5486 10.5153 11.5235 10.3981 11.475 10.29C11.4265 10.1818 11.3557 10.0852 11.2672 10.0064C11.1787 9.92753 11.0745 9.86831 10.9615 9.83261C10.8485 9.7969 10.7293 9.78551 10.6115 9.79917H6.86982C6.64979 9.80199 6.43938 9.88989 6.28274 10.0444C6.1261 10.199 6.03538 10.4082 6.02961 10.6282V10.6394ZM16.1121 7.16651C15.5179 7.16651 14.948 6.93045 14.5278 6.51027C14.1076 6.09008 13.8716 5.52019 13.8716 4.92596V1.96842C13.8685 1.89889 13.8796 1.82946 13.9041 1.76433C13.9287 1.6992 13.9662 1.63972 14.0143 1.58946C14.0625 1.53921 14.1203 1.49924 14.1843 1.47195C14.2484 1.44466 14.3173 1.43063 14.3869 1.43069C14.4605 1.42834 14.5338 1.44217 14.6016 1.4712C14.6693 1.50023 14.7299 1.54377 14.779 1.59874L19.2601 6.2815C19.3318 6.35723 19.3799 6.45217 19.3987 6.55478C19.4174 6.65739 19.4059 6.76323 19.3655 6.8594C19.3251 6.95557 19.2576 7.03793 19.1713 7.09643C19.085 7.15494 18.9835 7.18708 18.8792 7.18892H16.0897L16.1121 7.16651Z" fill="#ADB9D2"/>
</svg>
