<svg width="257" height="223" viewBox="0 0 257 223" fill="none" xmlns="http://www.w3.org/2000/svg">
<path d="M135.975 0L143.806 2.33253L139.974 35.6543L135.809 34.1548L135.975 0Z" fill="#B8BFCD"/>
<path d="M135.476 37.9868L139.308 39.4863L138.809 42.6519L134.977 41.319L135.476 37.9868Z" fill="#B8BFCD"/>
<path d="M149.971 17.8273L157.802 19.9932L154.137 41.3191L149.805 39.8197L149.971 17.8273Z" fill="#B8BFCD"/>
<path d="M149.471 43.4849L153.303 44.9843L152.803 47.9833L148.971 46.6504L149.471 43.4849Z" fill="#B8BFCD"/>
<path d="M190.291 165.276H87.8266C87.8266 165.276 93.4913 163.443 83.6614 165.276C73.6649 167.109 73.6649 166.776 74.4979 160.444C75.331 154.113 81.3289 147.616 85.9939 140.618C85.4941 133.954 87.66 126.956 95.4906 120.458C95.4906 120.292 95.4906 120.125 95.4906 119.958C91.6586 81.8051 111.818 94.3007 128.646 87.9696L126.48 86.4701L151.138 75.8071C151.138 75.8071 158.136 77.6398 164.633 81.3052C169.465 84.1376 173.963 87.803 174.63 92.468C175.463 97.7995 174.63 104.797 173.464 111.295C172.464 117.126 171.298 122.458 170.965 125.956C170.965 126.623 170.798 127.123 170.798 127.623C171.964 133.121 179.628 141.284 178.629 146.616C181.294 149.448 184.626 157.945 185.126 161.611C185.793 165.276 190.291 165.276 190.291 165.276Z" fill="#DDE3EE"/>
<path opacity="0.1" d="M173.462 111.295C172.463 117.126 171.296 122.458 170.963 126.123C168.464 130.621 163.965 133.454 157.801 136.953C156.468 137.786 154.802 138.452 153.303 138.952C151.137 139.618 148.971 140.285 146.805 140.618C140.14 141.951 133.309 142.284 126.478 140.951C120.814 139.785 115.149 137.952 109.984 134.953C108.318 133.954 106.485 132.787 104.986 131.454C100.487 127.622 96.9887 124.29 95.156 120.292C93.4899 116.959 93.1567 113.127 93.9897 107.963C95.9891 96.9664 98.6548 88.6359 98.6548 88.6359C98.8214 87.8029 100.154 86.6366 100.654 85.9702C101.487 85.1371 101.987 84.1375 102.82 83.3044C104.153 81.6383 105.819 79.8056 107.152 78.1396C110.484 74.8074 114.149 72.1416 118.481 70.4755C125.479 67.9764 132.976 68.3096 140.14 69.3093C145.305 69.9757 150.803 71.142 155.468 73.8077C158.967 75.807 161.8 78.3062 164.299 81.4717C164.799 81.9716 165.132 82.638 165.632 83.1378C168.464 87.303 170.463 91.9681 172.796 96.4665C172.962 96.4665 173.462 102.631 173.462 111.295Z" fill="#AAB2C5"/>
<path d="M33.5117 165.443H250.27" stroke="#D6DCE8" stroke-width="1.5905" stroke-miterlimit="10" stroke-linecap="round" stroke-linejoin="round"/>
<path d="M8.02051 165.443H21.8491" stroke="#D6DCE8" stroke-width="1.5905" stroke-miterlimit="10" stroke-linecap="round" stroke-linejoin="round"/>
<path d="M158.634 123.79C157.301 124.623 155.635 125.29 154.136 125.79C152.136 126.456 149.804 127.123 147.638 127.456C140.974 128.789 134.143 129.122 127.312 127.622C121.647 126.456 115.982 124.623 110.817 121.624C108.985 120.625 107.319 119.459 105.819 118.126C97.3221 110.962 92.8237 105.63 94.823 94.6338C96.8223 83.6376 99.3214 75.4738 99.3214 75.4738C99.488 74.6408 100.821 73.4745 101.321 72.8081C102.154 71.975 102.654 70.9754 103.487 70.1423C104.819 68.4762 106.319 66.6435 107.818 64.9774C111.151 61.6453 114.816 58.9795 119.148 57.3134C126.145 54.8143 133.643 55.1475 140.807 56.1472C146.139 56.8136 151.47 57.9799 156.135 60.6456C160.3 62.9781 163.466 66.1437 166.132 69.9757C168.964 74.1409 170.963 78.806 173.296 83.471C173.296 83.471 174.129 92.1347 173.796 103.297C173.796 114.46 168.298 118.459 158.634 123.79Z" fill="#EAEEF9"/>
<path d="M122.648 95.4669C120.982 96.6332 118.483 101.132 111.485 97.4662C101.656 92.1347 104.155 78.806 110.319 75.1406C121.315 68.6428 131.312 73.3079 131.812 83.471C132.312 94.3006 126.147 93.301 122.648 95.4669Z" fill="#BFC8D6"/>
<path d="M178.129 159.112C176.796 160.778 177.129 163.277 178.962 164.61C179.961 165.276 180.961 165.942 181.461 167.609C182.627 170.941 193.29 178.771 198.788 177.105C204.453 175.439 210.617 171.274 209.118 164.443C207.785 157.612 201.787 154.28 198.788 154.113C195.789 153.78 185.293 152.614 181.794 155.28C180.461 156.446 179.128 157.945 178.129 159.112Z" fill="#EAEEF9"/>
<path d="M90.4922 159.112C91.8251 160.778 91.4918 163.277 89.6591 164.61C88.6595 165.276 87.6598 165.943 87.16 167.609C85.9937 170.941 75.3308 178.772 69.8327 177.105C64.3346 175.439 58.0034 171.274 59.5029 164.443C60.8358 157.612 66.8337 154.28 69.8327 154.113C72.8316 153.947 83.328 152.614 86.8268 155.28C88.3263 156.446 89.6591 157.945 90.4922 159.112Z" fill="#EAEEF9"/>
<path d="M116.983 93.301C121.315 93.8008 125.147 90.6352 125.647 86.3034C126.147 81.9715 122.981 78.1395 118.649 77.6397C114.317 77.1399 110.485 80.3055 109.986 84.6373C109.486 88.9691 112.651 92.8011 116.983 93.301Z" fill="white"/>
<path d="M124.646 87.1366C124.313 90.4687 121.314 92.9679 117.982 92.6347C114.65 92.3014 112.151 89.3025 112.484 85.9703C112.984 86.4701 113.65 86.97 114.317 87.1366C115.816 87.3032 117.149 86.3035 117.316 84.6374C117.482 83.138 116.483 81.8051 114.983 81.6385C116.149 80.8054 117.649 80.4722 119.148 80.6388C122.647 80.8054 124.98 83.6378 124.646 87.1366Z" fill="#989FB0"/>
<path d="M154.968 97.2996C159.3 97.7994 163.132 94.6339 163.632 90.302C164.132 85.9702 160.966 82.1382 156.635 81.6384C152.303 81.1385 148.471 84.3041 147.971 88.6359C147.471 93.1344 150.637 96.9664 154.968 97.2996Z" fill="white"/>
<path d="M148.638 89.6355C148.305 92.9677 150.804 95.9667 154.136 96.2999C157.468 96.6331 160.467 94.134 160.8 90.8018C160.3 91.3016 159.467 91.6349 158.801 91.4682C157.301 91.3016 156.135 89.9688 156.302 88.4693C156.468 86.9698 157.801 85.9701 159.301 85.9701C158.301 84.9705 156.968 84.3041 155.469 84.1375C152.137 83.8042 149.138 86.1368 148.638 89.6355Z" fill="#989FB0"/>
<path d="M121.815 66.8101C118.983 67.3099 116.484 67.8097 114.484 69.1426C112.485 70.4755 110.486 72.6414 109.486 75.1405C109.486 75.3071 109.32 75.3071 109.153 75.3071C108.986 75.3071 108.986 75.1405 108.986 75.1405C109.153 73.8076 109.819 72.3082 110.652 71.1419C111.319 69.809 112.485 68.8094 113.818 67.9763C115.151 67.1433 116.317 66.4768 117.817 65.977C119.316 65.8104 120.816 65.6438 122.148 66.3102C121.982 66.3102 122.315 66.6435 121.815 66.8101C121.982 66.8101 121.982 66.8101 121.815 66.8101Z" fill="#989FB0"/>
<path d="M155.97 72.808C158.469 73.8077 160.635 74.8074 162.468 76.4734C164.134 78.1395 165.467 80.6387 165.966 83.1378C165.966 83.3044 166.133 83.3044 166.3 83.3044C166.466 83.3044 166.466 83.1378 166.466 83.1378C166.633 81.8049 166.133 80.3054 165.8 79.1392C165.3 77.8063 164.634 76.4734 163.467 75.4738C162.468 74.4741 161.468 73.4745 160.135 72.808C158.802 72.3082 157.303 71.975 155.97 72.1416C155.803 72.3082 155.803 72.4748 155.97 72.808C155.97 72.808 155.637 72.808 155.97 72.808Z" fill="#989FB0"/>
<path d="M170.798 65.4774C167.799 61.4788 163.467 62.645 165.133 67.3101C167.799 74.6409 172.797 78.1397 174.13 105.464C174.463 110.295 190.624 99.9654 190.624 82.8047C190.624 79.6391 186.792 78.4729 186.792 78.4729C184.46 77.8064 175.629 71.6419 170.798 65.4774Z" fill="#989FB0"/>
<path d="M33.5123 78.4729C33.5123 78.4729 15.8517 73.308 18.6841 79.1393C21.5164 84.9706 29.347 96.6333 41.8427 99.4656C54.3384 102.131 46.841 91.1352 47.0076 91.3018L33.5123 78.4729Z" fill="#EEEEEE"/>
<g filter="url(#filter0_d_4_653)">
<path d="M14.8517 67.1433C19.3502 72.1416 38.177 79.4724 53.505 78.8059C55.6709 94.8004 57.337 99.6321 60.1693 101.631C52.5053 103.631 31.8458 101.965 29.0135 86.47C14.5185 87.1364 14.8517 67.1433 14.8517 67.1433Z" fill="url(#paint0_linear_4_653)"/>
</g>
<g filter="url(#filter1_d_4_653)">
<path d="M213.949 126.29C218.947 122.957 227.944 107.463 229.277 94.1341C243.439 94.1341 247.771 93.4677 250.103 91.1351C250.77 98.1327 249.437 115.293 237.441 125.457C224.112 126.789 213.949 126.29 213.949 126.29Z" fill="url(#paint1_linear_4_653)"/>
</g>
<g filter="url(#filter2_d_4_653)">
<path d="M176.462 180.771C153.304 184.603 149.139 185.269 140.308 184.103C131.478 182.937 119.149 181.437 114.984 189.434C113.151 178.938 108.986 169.275 101.322 161.944C101.822 161.277 102.155 160.278 102.155 159.278C102.155 157.279 100.989 155.613 99.1558 154.946C99.489 154.28 99.6556 153.613 99.6556 152.947C99.6556 150.448 97.6563 148.282 94.9906 148.282C93.4911 148.282 92.1582 148.948 91.3252 150.115C91.4918 149.281 91.6584 148.615 91.6584 148.282C91.6584 145.783 89.6591 143.617 86.9934 143.617C85.6605 143.617 84.3276 144.283 83.4946 145.283C82.8281 144.283 81.8285 143.617 80.4956 143.617C78.4963 143.617 76.9968 145.116 76.9968 147.116C76.9968 147.449 76.9968 148.282 76.9968 149.281C65.1676 145.449 62.6685 145.283 62.6685 145.283C69.8326 131.121 103.821 110.462 128.312 114.294C143.974 116.626 161.634 120.958 170.631 138.119C170.131 137.952 169.631 137.785 169.132 137.785C168.965 137.785 168.632 137.785 168.299 137.952C167.465 136.786 166.133 136.119 164.633 136.119C162.301 136.119 160.468 137.785 160.135 139.951C159.968 139.951 159.302 139.951 158.802 139.951C156.303 139.951 154.303 141.951 154.303 144.45C154.303 146.283 155.47 147.949 157.136 148.615C156.303 149.448 155.803 150.448 155.803 151.781C155.803 154.28 157.802 156.279 160.301 156.279C161.967 156.279 163.3 155.446 164.133 154.28C164.966 155.446 166.299 156.279 167.965 156.279C170.464 156.279 172.464 154.28 172.464 151.781C172.464 151.614 172.464 151.614 172.464 151.447C173.63 150.948 174.63 149.948 174.963 148.782C177.129 157.112 177.962 167.608 176.462 180.771Z" fill="url(#paint2_linear_4_653)"/>
</g>
<path d="M118.316 168.608C124.814 166.609 152.471 160.444 168.299 162.277L118.316 168.608Z" fill="white"/>
<path fill-rule="evenodd" clip-rule="evenodd" d="M139.98 165.075C130.307 166.632 121.821 168.663 118.634 169.644L117.997 167.573C121.308 166.554 129.899 164.503 139.636 162.936C149.356 161.372 160.352 160.266 168.423 161.201L168.174 163.353C160.417 162.455 149.671 163.516 139.98 165.075Z" fill="#D6DCE8"/>
<path d="M111.817 159.778C117.149 157.445 142.807 152.114 155.802 151.614L111.817 159.778Z" fill="white"/>
<path fill-rule="evenodd" clip-rule="evenodd" d="M119.374 158.64C116.01 159.477 113.491 160.229 112.252 160.771L111.384 158.786C112.811 158.161 115.498 157.372 118.851 156.537C122.231 155.696 126.363 154.792 130.73 153.945C139.449 152.256 149.178 150.785 155.761 150.532L155.844 152.697C149.432 152.944 139.834 154.388 131.143 156.073C126.805 156.913 122.71 157.81 119.374 158.64Z" fill="#D6DCE8"/>
<path d="M105.654 149.948C126.813 138.119 143.474 143.117 157.136 132.621L105.654 149.948Z" fill="white"/>
<path fill-rule="evenodd" clip-rule="evenodd" d="M134.399 141.85C125.886 143.391 116.59 145.075 106.182 150.894L105.125 149.002C115.855 143.004 125.452 141.267 133.961 139.728L134.013 139.718C142.567 138.171 149.884 136.826 156.476 131.761L157.796 133.48C150.751 138.892 142.939 140.305 134.492 141.834L134.399 141.85Z" fill="#D6DCE8"/>
<path d="M98.8228 142.451C107.82 136.286 115.484 133.454 125.813 132.621L98.8228 142.451Z" fill="white"/>
<path fill-rule="evenodd" clip-rule="evenodd" d="M125.901 133.7C115.774 134.517 108.289 137.278 99.4356 143.344L98.2109 141.557C107.351 135.294 115.195 132.39 125.727 131.541L125.901 133.7Z" fill="#D6DCE8"/>
<path d="M154.636 118.126C154.636 118.292 154.636 118.626 154.636 118.792V118.959C154.636 119.125 154.636 119.292 154.469 119.459C153.47 122.124 149.138 125.29 144.639 125.79C140.141 126.29 135.476 124.457 133.477 116.959C128.645 121.625 123.98 122.291 120.148 121.291C115.15 119.958 111.817 115.96 111.651 114.794C111.651 114.294 111.651 113.794 111.817 113.294C112.984 102.464 123.48 94.8005 135.309 96.1333C147.139 97.6328 155.802 107.463 154.636 118.126Z" fill="#BFC8D6"/>
<path d="M135.31 97.7995C134.311 97.6329 133.145 97.6329 132.145 97.7995C130.812 98.1327 128.813 98.4659 128.479 100.132C128.313 102.298 132.978 104.797 134.311 104.964C135.644 105.13 140.809 103.797 141.142 101.632C141.308 99.4656 139.476 98.6326 137.81 98.1327C136.977 97.9661 135.977 97.6329 135.31 97.7995Z" fill="#989FB0"/>
<path fill-rule="evenodd" clip-rule="evenodd" d="M133.931 108.957C133.853 106.736 133.584 104.413 133.36 102.957L134.706 102.75C134.936 104.246 135.212 106.623 135.293 108.909C135.333 110.051 135.325 111.185 135.235 112.18C135.147 113.158 134.974 114.075 134.642 114.737L133.424 114.128C133.637 113.701 133.794 112.994 133.878 112.058C133.961 111.139 133.971 110.067 133.931 108.957Z" fill="#989FB0"/>
<path d="M107.487 64.6444L107.32 66.4771C106.487 67.3101 105.821 68.3098 104.988 69.3095C100.656 75.1408 96.6571 82.8048 95.4908 92.4681C95.1576 91.3018 91.6588 78.8062 90.9924 76.4736C90.8258 75.9738 90.6592 75.6406 90.6592 75.6406V72.1418L93.8247 65.1442L101.989 60.979L107.487 64.6444Z" fill="#6F788D"/>
<path d="M114.817 59.4795C112.485 61.1456 109.819 63.4781 107.32 66.4771C106.487 67.3101 105.82 68.3098 104.987 69.3094C104.654 64.6444 99.1558 63.978 99.1558 63.978C98.4894 68.1432 94.824 72.8082 90.8254 76.4736C87.4932 79.4726 83.8278 81.6385 81.4953 81.8051C80.8288 81.8051 80.329 81.3053 80.6622 80.6388C82.3283 76.307 81.8285 69.9759 82.3283 66.8103C82.9947 63.3115 92.9913 57.98 98.1562 55.9807C102.155 54.4812 112.651 56.6472 114.817 59.4795Z" fill="#989FB0"/>
<defs>
<filter id="filter0_d_4_653" x="0.851074" y="57.1433" width="65.3184" height="55.1686" filterUnits="userSpaceOnUse" color-interpolation-filters="sRGB">
<feFlood flood-opacity="0" result="BackgroundImageFix"/>
<feColorMatrix in="SourceAlpha" type="matrix" values="0 0 0 0 0 0 0 0 0 0 0 0 0 0 0 0 0 0 127 0" result="hardAlpha"/>
<feOffset dx="-4"/>
<feGaussianBlur stdDeviation="5"/>
<feColorMatrix type="matrix" values="0 0 0 0 0.397708 0 0 0 0 0.47749 0 0 0 0 0.575 0 0 0 0.15 0"/>
<feBlend mode="normal" in2="BackgroundImageFix" result="effect1_dropShadow_4_653"/>
<feBlend mode="normal" in="SourceGraphic" in2="effect1_dropShadow_4_653" result="shape"/>
</filter>
<filter id="filter1_d_4_653" x="199.949" y="81.1351" width="56.2937" height="55.2463" filterUnits="userSpaceOnUse" color-interpolation-filters="sRGB">
<feFlood flood-opacity="0" result="BackgroundImageFix"/>
<feColorMatrix in="SourceAlpha" type="matrix" values="0 0 0 0 0 0 0 0 0 0 0 0 0 0 0 0 0 0 127 0" result="hardAlpha"/>
<feOffset dx="-4"/>
<feGaussianBlur stdDeviation="5"/>
<feColorMatrix type="matrix" values="0 0 0 0 0.397708 0 0 0 0 0.47749 0 0 0 0 0.575 0 0 0 0.15 0"/>
<feBlend mode="normal" in2="BackgroundImageFix" result="effect1_dropShadow_4_653"/>
<feBlend mode="normal" in="SourceGraphic" in2="effect1_dropShadow_4_653" result="shape"/>
</filter>
<filter id="filter2_d_4_653" x="40.6685" y="102.828" width="158.554" height="119.606" filterUnits="userSpaceOnUse" color-interpolation-filters="sRGB">
<feFlood flood-opacity="0" result="BackgroundImageFix"/>
<feColorMatrix in="SourceAlpha" type="matrix" values="0 0 0 0 0 0 0 0 0 0 0 0 0 0 0 0 0 0 127 0" result="hardAlpha"/>
<feOffset dy="11"/>
<feGaussianBlur stdDeviation="11"/>
<feColorMatrix type="matrix" values="0 0 0 0 0.397708 0 0 0 0 0.47749 0 0 0 0 0.575 0 0 0 0.27 0"/>
<feBlend mode="normal" in2="BackgroundImageFix" result="effect1_dropShadow_4_653"/>
<feBlend mode="normal" in="SourceGraphic" in2="effect1_dropShadow_4_653" result="shape"/>
</filter>
<linearGradient id="paint0_linear_4_653" x1="37.4954" y1="66.3298" x2="37.4954" y2="102.691" gradientUnits="userSpaceOnUse">
<stop stop-color="#FDFEFF"/>
<stop offset="0.9964" stop-color="#ECF0F5"/>
</linearGradient>
<linearGradient id="paint1_linear_4_653" x1="232.084" y1="90.3199" x2="232.084" y2="126.761" gradientUnits="userSpaceOnUse">
<stop stop-color="#FDFEFF"/>
<stop offset="0.9964" stop-color="#ECF0F5"/>
</linearGradient>
<linearGradient id="paint2_linear_4_653" x1="119.908" y1="112.079" x2="119.908" y2="190.249" gradientUnits="userSpaceOnUse">
<stop stop-color="#FDFEFF"/>
<stop offset="0.9964" stop-color="#ECF0F5"/>
</linearGradient>
</defs>
</svg>
