<svg width="18" height="21" viewBox="0 0 18 21" fill="none" xmlns="http://www.w3.org/2000/svg">
<path d="M8.78404 20.9187C8.16033 20.828 7.57097 20.5764 7.07402 20.1887C6.87638 20.0594 6.71068 19.8869 6.58943 19.6842C6.46817 19.4816 6.39453 19.254 6.37403 19.0187C6.37403 18.5187 6.83402 18.2787 7.26402 18.1787C8.59555 18.0807 9.93249 18.0807 11.264 18.1787C11.694 18.2787 12.154 18.5087 12.154 19.0187C12.1354 19.2533 12.0636 19.4806 11.944 19.6833C11.8245 19.8861 11.6603 20.0589 11.464 20.1887C10.9645 20.5784 10.3714 20.8301 9.74403 20.9187C9.57752 20.929 9.41054 20.929 9.24403 20.9187C9.09081 20.9272 8.93726 20.9272 8.78404 20.9187V20.9187ZM4.56404 16.6987C3.45765 16.5985 2.42613 16.097 1.66401 15.2887C1.10114 14.6242 0.795929 13.7795 0.804027 12.9087C0.753575 12.075 1.01364 11.2521 1.53404 10.5987C1.89892 10.2233 2.18162 9.77602 2.36412 9.28534C2.54662 8.79466 2.62492 8.27134 2.59404 7.74873V7.31873C2.52921 5.91947 2.98924 4.54645 3.88401 3.46873C4.54335 2.68246 5.3664 2.04961 6.29563 1.61436C7.22487 1.1791 8.2379 0.951937 9.26402 0.94873H9.35401C10.403 0.949986 11.4383 1.18698 12.3834 1.64221C13.3285 2.09744 14.1592 2.75925 14.814 3.57873C15.6599 4.63566 16.087 5.96698 16.014 7.31873V7.74873C15.9899 8.26899 16.0694 8.78886 16.2479 9.27813C16.4265 9.76739 16.7005 10.2163 17.054 10.5987C17.5727 11.253 17.8326 12.0752 17.784 12.9087C17.7921 13.7795 17.4869 14.6242 16.924 15.2887C16.1619 16.097 15.1304 16.5985 14.024 16.6987C12.454 16.8387 10.874 16.9487 9.28404 16.9487C7.70725 16.9545 6.1314 16.871 4.56404 16.6987V16.6987Z" fill="#99A7C7" fill-opacity="0.8"/>
</svg>
