<svg width="20" height="19" viewBox="0 0 20 19" fill="none" xmlns="http://www.w3.org/2000/svg">
<path fill-rule="evenodd" clip-rule="evenodd" d="M15.5654 0.863424C15.5135 0.90007 15.3153 1.10689 15.1248 1.3231C14.4374 2.10351 13.5351 2.96981 12.6917 3.65928C11.1469 4.92214 9.63483 5.7649 8.20295 6.16111L7.78686 6.27624L8.20281 9.64979L8.61876 13.0233L9.13338 13.0429C11.4306 13.1301 14.2649 14.2259 16.9847 16.0782C17.4783 16.4144 17.6003 16.4579 17.8343 16.381C17.9931 16.3288 18.1311 16.1925 18.1841 16.0354C18.2255 15.9125 18.1497 15.2532 17.3204 8.5272C16.315 0.372999 16.4112 0.99635 16.1346 0.848688C15.9795 0.765982 15.6928 0.77338 15.5654 0.863424ZM2.7337 6.96617C1.46792 7.33963 0.542017 8.38503 0.305296 9.70803C0.250626 10.0135 0.251635 10.1045 0.315669 10.6238C0.379703 11.1432 0.40083 11.2317 0.528057 11.5147C1.02638 12.6234 1.94675 13.3329 3.1649 13.5475L3.50825 13.608L5.49717 13.3755L7.48609 13.1431L7.07301 9.79283L6.65992 6.44249L4.78612 6.67798C3.75555 6.80747 2.83194 6.93717 2.7337 6.96617ZM18.4506 8.38784L18.6895 10.325L18.7614 10.2748C18.9083 10.1725 19.2839 9.68301 19.3821 9.46605C19.4379 9.34272 19.5132 9.12357 19.5493 8.97911C19.607 8.748 19.608 8.66044 19.5576 8.25136C19.5071 7.84228 19.4849 7.75759 19.3727 7.54742C19.3026 7.41606 19.1764 7.22174 19.0923 7.11568C18.9443 6.92907 18.4611 6.54552 18.2938 6.48189L18.2118 6.45071L18.4506 8.38784ZM3.80571 14.8051C4.09616 15.7813 4.2233 16.1638 4.44962 16.7424C4.76372 17.5453 5.30086 18.6874 5.42977 18.8265C5.61983 19.0316 5.6409 19.0315 7.32592 18.8238C8.66256 18.659 8.87477 18.625 8.98067 18.5585C9.13987 18.4584 9.23443 18.2798 9.23268 18.0826C9.2314 17.9407 9.18269 17.8497 8.7844 17.2443C8.53862 16.8708 8.32406 16.5371 8.30755 16.5028C8.27973 16.445 8.32492 16.4345 8.92109 16.361C9.51296 16.2881 9.57564 16.2737 9.70108 16.1824C9.83989 16.0813 9.95951 15.8321 9.94106 15.6824C9.93599 15.6413 9.87146 15.4719 9.79768 15.306C9.72387 15.14 9.60027 14.8166 9.52303 14.5873L9.38254 14.1703L9.13655 14.1562C9.00128 14.1485 8.73881 14.1487 8.55335 14.1568L8.21612 14.1715L8.26978 14.391C8.29928 14.5118 8.37226 14.7606 8.43197 14.9439L8.54054 15.2773L8.12165 15.3183L7.70273 15.3593L7.55988 15.037C7.48134 14.8598 7.38493 14.621 7.34567 14.5064L7.27431 14.298L5.70208 14.4919C4.8374 14.5985 4.04869 14.6847 3.94941 14.6836L3.76892 14.6814L3.80571 14.8051Z" fill="#F6CE42"/>
</svg>
