<svg width="21" height="22" viewBox="0 0 21 22" fill="none" xmlns="http://www.w3.org/2000/svg">
<path d="M16.0967 7C17.7535 7 19.0967 5.65685 19.0967 4C19.0967 2.34315 17.7535 1 16.0967 1C14.4398 1 13.0967 2.34315 13.0967 4C13.0967 5.65685 14.4398 7 16.0967 7Z" stroke="#485470" stroke-width="2" stroke-linecap="round" stroke-linejoin="round"/>
<path d="M4.09668 14C5.75353 14 7.09668 12.6569 7.09668 11C7.09668 9.34315 5.75353 8 4.09668 8C2.43983 8 1.09668 9.34315 1.09668 11C1.09668 12.6569 2.43983 14 4.09668 14Z" stroke="#485470" stroke-width="2" stroke-linecap="round" stroke-linejoin="round"/>
<path d="M16.0967 21C17.7535 21 19.0967 19.6569 19.0967 18C19.0967 16.3431 17.7535 15 16.0967 15C14.4398 15 13.0967 16.3431 13.0967 18C13.0967 19.6569 14.4398 21 16.0967 21Z" stroke="#485470" stroke-width="2" stroke-linecap="round" stroke-linejoin="round"/>
<path d="M6.68652 12.5098L13.5165 16.4898" stroke="#485470" stroke-width="2" stroke-linecap="round" stroke-linejoin="round"/>
<path d="M13.5065 5.50977L6.68652 9.48977" stroke="#485470" stroke-width="2" stroke-linecap="round" stroke-linejoin="round"/>
</svg>
