<svg width="20" height="19" viewBox="0 0 20 19" fill="none" xmlns="http://www.w3.org/2000/svg">
<path fill-rule="evenodd" clip-rule="evenodd" d="M15.5595 0.863424C15.5077 0.90007 15.3094 1.10689 15.119 1.3231C14.4316 2.10351 13.5293 2.96981 12.6859 3.65928C11.141 4.92214 9.62897 5.7649 8.19709 6.16111L7.781 6.27624L8.19695 9.64979L8.6129 13.0233L9.12752 13.0429C11.4247 13.1301 14.259 14.2259 16.9789 16.0782C17.4725 16.4144 17.5945 16.4579 17.8285 16.381C17.9873 16.3288 18.1252 16.1925 18.1782 16.0354C18.2196 15.9125 18.1438 15.2532 17.3145 8.5272C16.3091 0.372999 16.4054 0.99635 16.1287 0.848688C15.9737 0.765982 15.687 0.77338 15.5595 0.863424ZM2.72784 6.96617C1.46206 7.33963 0.536157 8.38503 0.299436 9.70803C0.244767 10.0135 0.245776 10.1045 0.30981 10.6238C0.373844 11.1432 0.394971 11.2317 0.522197 11.5147C1.02052 12.6234 1.94089 13.3329 3.15904 13.5475L3.50239 13.608L5.49131 13.3755L7.48023 13.1431L7.06715 9.79283L6.65406 6.44249L4.78026 6.67798C3.74969 6.80747 2.82608 6.93717 2.72784 6.96617ZM18.4448 8.38784L18.6836 10.325L18.7556 10.2748C18.9024 10.1725 19.278 9.68301 19.3762 9.46605C19.4321 9.34272 19.5073 9.12357 19.5434 8.97911C19.6011 8.748 19.6022 8.66044 19.5517 8.25136C19.5013 7.84228 19.479 7.75759 19.3669 7.54742C19.2968 7.41606 19.1706 7.22174 19.0864 7.11568C18.9385 6.92907 18.4552 6.54552 18.2879 6.48189L18.2059 6.45071L18.4448 8.38784ZM3.79985 14.8051C4.0903 15.7813 4.21744 16.1638 4.44376 16.7424C4.75786 17.5453 5.295 18.6874 5.42391 18.8265C5.61397 19.0316 5.63504 19.0315 7.32006 18.8238C8.6567 18.659 8.86891 18.625 8.97481 18.5585C9.13402 18.4584 9.22857 18.2798 9.22682 18.0826C9.22555 17.9407 9.17683 17.8497 8.77854 17.2443C8.53276 16.8708 8.3182 16.5371 8.30169 16.5028C8.27387 16.445 8.31906 16.4345 8.91523 16.361C9.5071 16.2881 9.56978 16.2737 9.69522 16.1824C9.83403 16.0813 9.95365 15.8321 9.9352 15.6824C9.93013 15.6413 9.8656 15.4719 9.79182 15.306C9.71801 15.14 9.59441 14.8166 9.51717 14.5873L9.37668 14.1703L9.13069 14.1562C8.99542 14.1485 8.73295 14.1487 8.54749 14.1568L8.21027 14.1715L8.26392 14.391C8.29342 14.5118 8.3664 14.7606 8.42611 14.9439L8.53468 15.2773L8.11579 15.3183L7.69687 15.3593L7.55402 15.037C7.47548 14.8598 7.37907 14.621 7.33981 14.5064L7.26845 14.298L5.69623 14.4919C4.83154 14.5985 4.04284 14.6847 3.94355 14.6836L3.76306 14.6814L3.79985 14.8051Z" fill="#F6CE42"/>
</svg>
