<svg width="23" height="22" viewBox="0 0 23 22" fill="none" xmlns="http://www.w3.org/2000/svg">
<path fill-rule="evenodd" clip-rule="evenodd" d="M17.9648 0.75585C17.9067 0.796915 17.6845 1.02868 17.4711 1.27097C16.7008 2.14548 15.6897 3.11626 14.7446 3.88888C13.0135 5.30403 11.319 6.24842 9.71449 6.69241L9.24822 6.82143L9.71433 10.6018L10.1804 14.3822L10.7571 14.4041C13.3314 14.5019 16.5074 15.7297 19.5553 17.8055C20.1084 18.1822 20.2452 18.2309 20.5074 18.1447C20.6853 18.0862 20.8399 17.9335 20.8993 17.7575C20.9457 17.6197 20.8607 16.8809 19.9314 9.34384C18.8048 0.206282 18.9127 0.904807 18.6026 0.739337C18.4289 0.646657 18.1076 0.654947 17.9648 0.75585ZM3.58567 7.59456C2.16725 8.01305 1.12968 9.18453 0.864412 10.6671C0.80315 11.0094 0.80428 11.1113 0.876036 11.6933C0.947792 12.2753 0.971468 12.3745 1.11404 12.6917C1.67246 13.934 2.70382 14.7291 4.06887 14.9696L4.45363 15.0373L6.6824 14.7769L8.91118 14.5164L8.44828 10.7621L7.98537 7.00773L5.88561 7.27162C4.73075 7.41672 3.69576 7.56206 3.58567 7.59456ZM21.198 9.18768L21.4656 11.3584L21.5463 11.3022C21.7108 11.1875 22.1317 10.639 22.2418 10.3959C22.3044 10.2577 22.3887 10.0121 22.4291 9.85026C22.4938 9.59127 22.4949 9.49315 22.4384 9.03474C22.3819 8.57633 22.357 8.48143 22.2313 8.2459C22.1527 8.0987 22.0113 7.88095 21.917 7.7621C21.7512 7.55298 21.2097 7.12318 21.0222 7.05187L20.9304 7.01694L21.198 9.18768ZM4.78696 16.3789C5.11243 17.4727 5.25491 17.9014 5.50852 18.5498C5.8605 19.4495 6.46242 20.7293 6.60688 20.8852C6.81986 21.115 6.84347 21.115 8.73169 20.8822C10.2295 20.6975 10.4673 20.6594 10.586 20.5848C10.7644 20.4727 10.8704 20.2726 10.8684 20.0515C10.867 19.8926 10.8124 19.7905 10.3661 19.1122C10.0906 18.6936 9.8502 18.3197 9.8317 18.2812C9.80053 18.2165 9.85116 18.2048 10.5192 18.1224C11.1825 18.0406 11.2527 18.0245 11.3933 17.9222C11.5488 17.8089 11.6829 17.5297 11.6622 17.3619C11.6565 17.3159 11.5842 17.1261 11.5015 16.9401C11.4188 16.7542 11.2803 16.3917 11.1938 16.1347L11.0363 15.6674L10.7607 15.6517C10.6091 15.643 10.315 15.6433 10.1071 15.6524L9.72925 15.6688L9.78937 15.9148C9.82243 16.0501 9.90421 16.3289 9.97112 16.5344L10.0928 16.908L9.62339 16.9539L9.15395 16.9999L8.99387 16.6387C8.90586 16.4401 8.79782 16.1725 8.75382 16.0441L8.67385 15.8106L6.91203 16.0278C5.94307 16.1473 5.05925 16.2439 4.94799 16.2426L4.74574 16.2402L4.78696 16.3789Z" fill="#99A7C7" fill-opacity="0.8"/>
</svg>
