<svg width="17" height="17" viewBox="0 0 17 17" fill="none" xmlns="http://www.w3.org/2000/svg">
<path d="M8.49331 17C6.52662 16.9984 4.62132 16.315 3.1021 15.066C1.58289 13.8171 0.543773 12.08 0.161838 10.1507C-0.220096 8.22146 0.0787906 6.21947 1.00756 4.48589C1.93632 2.75232 3.4375 1.39445 5.25526 0.643694C7.07301 -0.107064 9.09485 -0.204251 10.9762 0.368692C12.8576 0.941634 14.4821 2.14925 15.5729 3.78575C16.6636 5.42224 17.1532 7.38634 16.958 9.34333C16.7629 11.3003 15.8952 13.1291 14.5028 14.518C12.9077 16.1091 10.7462 17.0018 8.49331 17ZM8.1958 4.1905C8.02741 4.1927 7.86654 4.26058 7.74746 4.37966C7.62838 4.49874 7.56051 4.65961 7.55831 4.828V9.078C7.55756 9.18847 7.58632 9.29712 7.64161 9.39276C7.6969 9.48839 7.77671 9.56753 7.87281 9.622L11.2048 11.611C11.2748 11.6535 11.3526 11.6816 11.4337 11.6934C11.5147 11.7053 11.5973 11.7009 11.6765 11.6802C11.7558 11.6596 11.8301 11.6233 11.8951 11.5735C11.9601 11.5236 12.0144 11.4612 12.0548 11.39C12.1319 11.2466 12.1519 11.0793 12.111 10.9217C12.07 10.7641 11.971 10.6277 11.8338 10.54L8.80781 8.738V4.811C8.80166 4.64984 8.73545 4.49682 8.6222 4.382C8.50896 4.26718 8.35686 4.19887 8.1958 4.1905Z" fill="#485470"/>
</svg>
