<svg width="26" height="22" viewBox="0 0 26 22" fill="none" xmlns="http://www.w3.org/2000/svg">
<path d="M12.3772 5.77996L12.4324 6.6911L11.5115 6.57953C8.15936 6.15185 5.23083 4.70148 2.74434 2.26559L1.52873 1.05695L1.21562 1.94949C0.552552 3.9391 0.976176 6.04029 2.35756 7.45347C3.09429 8.23444 2.92853 8.34601 1.65766 7.88115C1.21562 7.73239 0.828829 7.62082 0.791992 7.67661C0.663063 7.80677 1.1051 9.49887 1.45505 10.1683C1.93393 11.098 2.91011 12.0091 3.97838 12.5484L4.88088 12.9761L3.81261 12.9946C2.78118 12.9946 2.74434 13.0132 2.85485 13.4037C3.22322 14.6124 4.67828 15.8954 6.2991 16.4532L7.44104 16.8437L6.44644 17.4387C4.97297 18.2941 3.24164 18.7776 1.51031 18.8147C0.681481 18.8333 0 18.9077 0 18.9635C0 19.1494 2.24705 20.1907 3.55475 20.5998C7.47788 21.8085 12.1377 21.2878 15.6372 19.2238C18.1237 17.7549 20.6102 14.8355 21.7706 12.0091C22.3968 10.503 23.023 7.75099 23.023 6.43077C23.023 5.57542 23.0783 5.46386 24.1097 4.44116C24.7175 3.84613 25.2885 3.19532 25.399 3.00938C25.5832 2.65608 25.5648 2.65608 24.6254 2.97219C23.0599 3.53002 22.8388 3.45565 23.6124 2.61889C24.1834 2.02387 24.8649 0.945382 24.8649 0.629275C24.8649 0.573491 24.5886 0.666464 24.2755 0.833815C23.9439 1.01976 23.2072 1.29868 22.6546 1.46603L21.6601 1.78214L20.7576 1.16852C20.2603 0.833815 19.5604 0.461924 19.192 0.350356C18.2526 0.0900327 16.816 0.127222 15.9688 0.424735C13.6665 1.26149 12.2114 3.41846 12.3772 5.77996Z" fill="#1D9BF0"/>
</svg>
