<svg width="19" height="18" viewBox="0 0 19 18" fill="none" xmlns="http://www.w3.org/2000/svg">
<path fill-rule="evenodd" clip-rule="evenodd" d="M12.0363 0.0930285C13.2196 0.427773 14.4649 1.09565 15.4113 1.903C16.366 2.71744 17.1263 3.69139 17.681 4.81034L17.9266 5.30572H16.0321H14.1378L14.1188 5.21917C13.6072 2.88827 12.9231 1.3573 11.91 0.276095C11.7663 0.122687 11.6642 -0.00152456 11.6831 1.4143e-05C11.7021 0.00159131 11.861 0.0434055 12.0363 0.0930285ZM7.40497 0.312178C6.41459 1.38935 5.76599 2.84949 5.23387 5.19994L5.2099 5.30572H3.31394H1.41801L1.67632 4.79545C2.41417 3.33788 3.41504 2.19482 4.74258 1.2936C5.47499 0.796407 6.56425 0.288636 7.31797 0.093144C7.44839 0.0592926 7.58879 0.0213636 7.62997 0.00882321C7.67294 -0.00429421 7.57702 0.124995 7.40497 0.312178ZM10.0967 0.457047C10.9564 0.738898 11.8469 1.93451 12.4278 3.58688C12.5829 4.02818 12.8151 4.84584 12.8804 5.1807L12.9048 5.30572H9.67383H6.44287L6.46724 5.1807C6.60787 4.45959 6.98617 3.31914 7.3126 2.63223C8.1109 0.95247 9.14455 0.144883 10.0967 0.457047ZM18.3703 6.62343C18.5129 7.00806 18.6738 8.26757 18.6738 8.9986C18.6738 9.72964 18.5129 10.9891 18.3703 11.3738L18.3382 11.4605H16.3262H14.3142L14.3362 11.3163C14.4905 10.3045 14.4905 7.69275 14.3362 6.68094L14.3142 6.53668H16.3262H18.3382L18.3703 6.62343ZM13.1571 6.89251C13.3103 8.17371 13.3107 9.74283 13.158 11.0855L13.1154 11.4605H9.67383H6.23227L6.18963 11.0855C6.11482 10.4273 6.07402 9.69102 6.07402 8.9986C6.07402 8.30619 6.11482 7.56988 6.18963 6.91174L6.23227 6.53668H9.67342H13.1146L13.1571 6.89251ZM5.01149 6.68059C4.93833 7.16036 4.89625 8.00672 4.89625 8.9986C4.89625 9.99049 4.93833 10.8369 5.01149 11.3166L5.0335 11.4612L3.01717 11.4513L1.00087 11.4413L0.954102 11.2788C0.800014 10.7435 0.673828 9.71679 0.673828 8.9986C0.673828 8.28041 0.800014 7.25368 0.954102 6.71836L1.00087 6.55592L3.01717 6.54595L5.0335 6.53599L5.01149 6.68059ZM17.6713 13.2018C17.2132 14.1067 16.7686 14.7352 16.0777 15.4543C14.9676 16.6099 13.6375 17.4258 12.1464 17.8661C11.8969 17.9398 11.6839 18 11.673 18C11.6621 18 11.7858 17.8557 11.9479 17.6794C12.9327 16.6082 13.5827 15.1431 14.1138 12.7973L14.1378 12.6915H16.0337H17.9296L17.6713 13.2018ZM12.8804 12.8165C12.8151 13.1514 12.5829 13.969 12.4278 14.4103C11.7452 16.352 10.6599 17.6153 9.67443 17.6153C8.68627 17.6153 7.60387 16.3559 6.9199 14.4103C6.76477 13.969 6.53253 13.1514 6.46724 12.8165L6.44287 12.6915H9.67383H12.9048L12.8804 12.8165ZM5.24362 12.8357C5.26297 12.9151 5.32424 13.1791 5.37978 13.4224C5.43532 13.6657 5.57032 14.1417 5.67978 14.4802C6.1291 15.8701 6.6823 16.899 7.39979 17.6794C7.56187 17.8557 7.68558 18 7.67467 18C7.66375 18 7.45518 17.941 7.2112 17.8689C4.80738 17.1589 2.79453 15.458 1.66458 13.1819L1.42109 12.6915H3.31476H5.20844L5.24362 12.8357Z" fill="#1787E7"/>
</svg>
