<svg width="23" height="23" viewBox="0 0 23 23" fill="none" xmlns="http://www.w3.org/2000/svg">
<path fill-rule="evenodd" clip-rule="evenodd" d="M14.6854 1.06268C16.1316 1.47181 17.6537 2.2881 18.8104 3.27487C19.9772 4.27029 20.9064 5.46068 21.5844 6.82828L21.8845 7.43375H19.5691H17.2538L17.2306 7.32796C16.6053 4.47908 15.7692 2.6079 14.5309 1.28642C14.3553 1.09893 14.2305 0.947111 14.2536 0.948992C14.2768 0.95092 14.4711 1.00203 14.6854 1.06268ZM9.0248 1.33053C7.81434 2.64706 7.02161 4.43169 6.37123 7.30445L6.34194 7.43375H4.02466H1.70741L2.02311 6.81008C2.92493 5.0286 4.14822 3.63153 5.77077 2.53004C6.66594 1.92236 7.99726 1.30175 8.91846 1.06282C9.07787 1.02144 9.24947 0.975086 9.2998 0.959759C9.35232 0.943726 9.23508 1.10175 9.0248 1.33053ZM12.3147 1.50759C13.3654 1.85207 14.4538 3.31337 15.1638 5.33294C15.3534 5.8723 15.6372 6.87167 15.717 7.28094L15.7468 7.43375H11.7979H7.8489L7.87869 7.28094C8.05056 6.39959 8.51293 5.00571 8.91191 4.16614C9.88761 2.1131 11.151 1.12605 12.3147 1.50759ZM22.4269 9.04427C22.6011 9.51439 22.7979 11.0538 22.7979 11.9473C22.7979 12.8408 22.6011 14.3801 22.4269 14.8503L22.3876 14.9563H19.9285H17.4695L17.4964 14.78C17.6849 13.5433 17.6849 10.3512 17.4964 9.11456L17.4695 8.93825H19.9285H22.3876L22.4269 9.04427ZM16.0552 9.37315C16.2424 10.9391 16.2429 12.8569 16.0563 14.4979L16.0042 14.9563H11.7979H7.5915L7.53939 14.4979C7.44795 13.6935 7.39808 12.7936 7.39808 11.9473C7.39808 11.101 7.44795 10.2011 7.53939 9.39666L7.5915 8.93825H11.7973H16.0032L16.0552 9.37315ZM6.09944 9.11414C6.01002 9.70052 5.95859 10.735 5.95859 11.9473C5.95859 13.1596 6.01002 14.194 6.09944 14.7804L6.12634 14.9571L3.66193 14.945L1.19756 14.9328L1.14041 14.7342C0.95208 14.08 0.797851 12.8251 0.797851 11.9473C0.797851 11.0695 0.95208 9.81458 1.14041 9.16031L1.19756 8.96176L3.66193 8.94958L6.12634 8.93741L6.09944 9.11414ZM21.5726 17.0845C21.0127 18.1905 20.4692 18.9586 19.6248 19.8376C18.268 21.25 16.6423 22.2472 14.8198 22.7853C14.5149 22.8753 14.2546 22.949 14.2413 22.949C14.2279 22.949 14.3791 22.7727 14.5772 22.5572C15.7809 21.2479 16.5754 19.4572 17.2245 16.5901L17.2538 16.4608H19.571H21.8883L21.5726 17.0845ZM15.717 16.6136C15.6372 17.0229 15.3534 18.0222 15.1638 18.5616C14.3295 20.9347 13.003 22.4788 11.7986 22.4788C10.5908 22.4788 9.2679 20.9395 8.43194 18.5616C8.24233 18.0222 7.95848 17.0229 7.87869 16.6136L7.8489 16.4608H11.7979H15.7468L15.717 16.6136ZM6.38315 16.6371C6.4068 16.7341 6.48169 17.0567 6.54957 17.3541C6.61745 17.6515 6.78245 18.2333 6.91623 18.647C7.46541 20.3457 8.14154 21.6033 9.01847 22.5572C9.21656 22.7727 9.36777 22.949 9.35443 22.949C9.34109 22.949 9.08617 22.8769 8.78798 22.7888C5.84997 21.9209 3.38982 19.8421 2.00877 17.0602L1.71117 16.4608H4.02566H6.34016L6.38315 16.6371Z" fill="#99A7C7" fill-opacity="0.8"/>
</svg>
